<svg width="28" height="25" viewBox="0 0 28 25" fill="none" xmlns="http://www.w3.org/2000/svg">
<rect width="26.069" height="21.2414" transform="translate(0.965576 0.965576)" fill="white"/>
<path d="M2.625 0C1.17578 0 0 1.17578 0 2.625V21.875C0 23.3242 1.17578 24.5 2.625 24.5H25.375C26.8242 24.5 28 23.3242 28 21.875V2.625C28 1.17578 26.8242 0 25.375 0H2.625ZM2.625 1.75H8.42188C8.60234 1.75 8.75 1.89766 8.75 2.07812V3.17188C8.75 3.35234 8.60234 3.5 8.42188 3.5H2.07812C1.89766 3.5 1.75 3.35234 1.75 3.17188V2.625C1.75 2.14375 2.14375 1.75 2.625 1.75ZM25.9219 7H2.07812C1.89766 7 1.75 6.85234 1.75 6.67188V4.70312C1.75 4.52266 1.89766 4.375 2.07812 4.375H9.625L11.2766 1.89766C11.3367 1.80469 11.4406 1.75 11.55 1.75H25.375C25.8563 1.75 26.25 2.14375 26.25 2.625V6.67188C26.25 6.85234 26.1023 7 25.9219 7ZM14 21.4375C10.3797 21.4375 7.4375 18.4953 7.4375 14.875C7.4375 11.2547 10.3797 8.3125 14 8.3125C17.6203 8.3125 20.5625 11.2547 20.5625 14.875C20.5625 18.4953 17.6203 21.4375 14 21.4375ZM14 10.0625C11.3477 10.0625 9.1875 12.2227 9.1875 14.875C9.1875 17.5273 11.3477 19.6875 14 19.6875C16.6523 19.6875 18.8125 17.5273 18.8125 14.875C18.8125 12.2227 16.6523 10.0625 14 10.0625ZM11.375 15.75C10.8937 15.75 10.5 15.3563 10.5 14.875C10.5 12.9445 12.0695 11.375 14 11.375C14.4813 11.375 14.875 11.7687 14.875 12.25C14.875 12.7313 14.4813 13.125 14 13.125C13.0375 13.125 12.25 13.9125 12.25 14.875C12.25 15.3563 11.8563 15.75 11.375 15.75Z" fill="#00263D"/>
</svg>
