<svg width="198" height="27" viewBox="0 0 198 27" fill="none" xmlns="http://www.w3.org/2000/svg">
<path d="M35.068 5.6H41.8C43.4427 5.6 44.902 5.92267 46.178 6.568C47.454 7.19867 48.444 8.10067 49.148 9.274C49.852 10.4327 50.204 11.7747 50.204 13.3C50.204 14.8253 49.852 16.1747 49.148 17.348C48.444 18.5067 47.454 19.4087 46.178 20.054C44.902 20.6847 43.4427 21 41.8 21H35.068V5.6ZM41.668 18.58C42.7973 18.58 43.7873 18.3673 44.638 17.942C45.5033 17.502 46.1633 16.886 46.618 16.094C47.0873 15.2873 47.322 14.356 47.322 13.3C47.322 12.244 47.0873 11.32 46.618 10.528C46.1633 9.72133 45.5033 9.10533 44.638 8.68C43.7873 8.24 42.7973 8.02 41.668 8.02H37.928V18.58H41.668ZM64.0238 15.192C64.0238 15.3827 64.0091 15.654 63.9798 16.006H54.7618C54.9231 16.8713 55.3411 17.5607 56.0158 18.074C56.7051 18.5727 57.5558 18.822 58.5678 18.822C59.8584 18.822 60.9218 18.3967 61.7578 17.546L63.2318 19.24C62.7038 19.8707 62.0364 20.3473 61.2298 20.67C60.4231 20.9927 59.5138 21.154 58.5018 21.154C57.2111 21.154 56.0744 20.8973 55.0918 20.384C54.1091 19.8707 53.3464 19.1593 52.8038 18.25C52.2758 17.326 52.0118 16.2847 52.0118 15.126C52.0118 13.982 52.2684 12.9553 52.7818 12.046C53.3098 11.122 54.0358 10.4033 54.9598 9.89C55.8838 9.37667 56.9251 9.12 58.0838 9.12C59.2278 9.12 60.2471 9.37667 61.1418 9.89C62.0511 10.3887 62.7551 11.1 63.2538 12.024C63.7671 12.9333 64.0238 13.9893 64.0238 15.192ZM58.0838 11.32C57.2038 11.32 56.4558 11.584 55.8398 12.112C55.2384 12.6253 54.8718 13.3147 54.7398 14.18H61.4058C61.2884 13.3293 60.9291 12.64 60.3278 12.112C59.7264 11.584 58.9784 11.32 58.0838 11.32ZM66.6653 4.676H69.4153V21H66.6653V4.676ZM73.0247 9.252H75.7747V21H73.0247V9.252ZM74.4107 7.316C73.912 7.316 73.494 7.162 73.1567 6.854C72.8194 6.53133 72.6507 6.13533 72.6507 5.666C72.6507 5.19667 72.8194 4.808 73.1567 4.5C73.494 4.17733 73.912 4.016 74.4107 4.016C74.9094 4.016 75.3274 4.17 75.6647 4.478C76.002 4.77133 76.1707 5.14533 76.1707 5.6C76.1707 6.084 76.002 6.49467 75.6647 6.832C75.342 7.15467 74.924 7.316 74.4107 7.316ZM91.0441 9.252V19.218C91.0441 23.354 88.9321 25.422 84.7081 25.422C83.5787 25.422 82.5081 25.2753 81.4961 24.982C80.4841 24.7033 79.6481 24.2927 78.9881 23.75L80.2201 21.682C80.7334 22.1073 81.3787 22.4447 82.1561 22.694C82.9481 22.958 83.7474 23.09 84.5541 23.09C85.8447 23.09 86.7907 22.7967 87.3921 22.21C87.9934 21.6233 88.2941 20.7287 88.2941 19.526V18.91C87.8247 19.4233 87.2527 19.812 86.5781 20.076C85.9034 20.34 85.1627 20.472 84.3561 20.472C83.2414 20.472 82.2294 20.2373 81.3201 19.768C80.4254 19.284 79.7141 18.6093 79.1861 17.744C78.6727 16.8787 78.4161 15.8887 78.4161 14.774C78.4161 13.6593 78.6727 12.6767 79.1861 11.826C79.7141 10.9607 80.4254 10.2933 81.3201 9.824C82.2294 9.35467 83.2414 9.12 84.3561 9.12C85.2067 9.12 85.9767 9.25933 86.6661 9.538C87.3701 9.81667 87.9567 10.242 88.4261 10.814V9.252H91.0441ZM84.7741 18.14C85.8154 18.14 86.6661 17.832 87.3261 17.216C88.0007 16.5853 88.3381 15.7713 88.3381 14.774C88.3381 13.7913 88.0007 12.992 87.3261 12.376C86.6661 11.76 85.8154 11.452 84.7741 11.452C83.7181 11.452 82.8527 11.76 82.1781 12.376C81.5181 12.992 81.1881 13.7913 81.1881 14.774C81.1881 15.7713 81.5181 16.5853 82.1781 17.216C82.8527 17.832 83.7181 18.14 84.7741 18.14ZM101.325 9.12C102.807 9.12 103.995 9.55267 104.889 10.418C105.784 11.2833 106.231 12.5667 106.231 14.268V21H103.481V14.62C103.481 13.5933 103.239 12.8233 102.755 12.31C102.271 11.782 101.582 11.518 100.687 11.518C99.6755 11.518 98.8761 11.826 98.2895 12.442C97.7028 13.0433 97.4095 13.916 97.4095 15.06V21H94.6595V4.676H97.4095V10.616C97.8641 10.132 98.4215 9.76533 99.0815 9.516C99.7561 9.252 100.504 9.12 101.325 9.12ZM116.782 20.362C116.459 20.626 116.063 20.824 115.594 20.956C115.139 21.088 114.655 21.154 114.142 21.154C112.851 21.154 111.854 20.8167 111.15 20.142C110.446 19.4673 110.094 18.4847 110.094 17.194V11.54H108.158V9.34H110.094V6.656H112.844V9.34H115.99V11.54H112.844V17.128C112.844 17.7 112.983 18.14 113.262 18.448C113.541 18.7413 113.944 18.888 114.472 18.888C115.088 18.888 115.601 18.7267 116.012 18.404L116.782 20.362ZM129.702 15.192C129.702 15.3827 129.687 15.654 129.658 16.006H120.44C120.601 16.8713 121.019 17.5607 121.694 18.074C122.383 18.5727 123.234 18.822 124.246 18.822C125.536 18.822 126.6 18.3967 127.436 17.546L128.91 19.24C128.382 19.8707 127.714 20.3473 126.908 20.67C126.101 20.9927 125.192 21.154 124.18 21.154C122.889 21.154 121.752 20.8973 120.77 20.384C119.787 19.8707 119.024 19.1593 118.482 18.25C117.954 17.326 117.69 16.2847 117.69 15.126C117.69 13.982 117.946 12.9553 118.46 12.046C118.988 11.122 119.714 10.4033 120.638 9.89C121.562 9.37667 122.603 9.12 123.762 9.12C124.906 9.12 125.925 9.37667 126.82 9.89C127.729 10.3887 128.433 11.1 128.932 12.024C129.445 12.9333 129.702 13.9893 129.702 15.192ZM123.762 11.32C122.882 11.32 122.134 11.584 121.518 12.112C120.916 12.6253 120.55 13.3147 120.418 14.18H127.084C126.966 13.3293 126.607 12.64 126.006 12.112C125.404 11.584 124.656 11.32 123.762 11.32ZM143.849 4.676V21H141.209V19.482C140.754 20.0393 140.19 20.4573 139.515 20.736C138.855 21.0147 138.122 21.154 137.315 21.154C136.186 21.154 135.166 20.9047 134.257 20.406C133.362 19.9073 132.658 19.2033 132.145 18.294C131.632 17.37 131.375 16.314 131.375 15.126C131.375 13.938 131.632 12.8893 132.145 11.98C132.658 11.0707 133.362 10.3667 134.257 9.868C135.166 9.36933 136.186 9.12 137.315 9.12C138.092 9.12 138.804 9.252 139.449 9.516C140.094 9.78 140.644 10.176 141.099 10.704V4.676H143.849ZM137.645 18.8C138.305 18.8 138.899 18.6533 139.427 18.36C139.955 18.052 140.373 17.6193 140.681 17.062C140.989 16.5047 141.143 15.8593 141.143 15.126C141.143 14.3927 140.989 13.7473 140.681 13.19C140.373 12.6327 139.955 12.2073 139.427 11.914C138.899 11.606 138.305 11.452 137.645 11.452C136.985 11.452 136.391 11.606 135.863 11.914C135.335 12.2073 134.917 12.6327 134.609 13.19C134.301 13.7473 134.147 14.3927 134.147 15.126C134.147 15.8593 134.301 16.5047 134.609 17.062C134.917 17.6193 135.335 18.052 135.863 18.36C136.391 18.6533 136.985 18.8 137.645 18.8ZM160.127 5.6C161.461 5.6 162.62 5.82 163.603 6.26C164.6 6.7 165.363 7.33067 165.891 8.152C166.419 8.97333 166.683 9.94867 166.683 11.078C166.683 12.1927 166.419 13.168 165.891 14.004C165.363 14.8253 164.6 15.456 163.603 15.896C162.62 16.336 161.461 16.556 160.127 16.556H156.651V21H153.791V5.6H160.127ZM159.995 14.136C161.241 14.136 162.187 13.872 162.833 13.344C163.478 12.816 163.801 12.0607 163.801 11.078C163.801 10.0953 163.478 9.34 162.833 8.812C162.187 8.284 161.241 8.02 159.995 8.02H156.651V14.136H159.995ZM169.167 9.252H171.917V21H169.167V9.252ZM170.553 7.316C170.055 7.316 169.637 7.162 169.299 6.854C168.962 6.53133 168.793 6.13533 168.793 5.666C168.793 5.19667 168.962 4.808 169.299 4.5C169.637 4.17733 170.055 4.016 170.553 4.016C171.052 4.016 171.47 4.17 171.807 4.478C172.145 4.77133 172.313 5.14533 172.313 5.6C172.313 6.084 172.145 6.49467 171.807 6.832C171.485 7.15467 171.067 7.316 170.553 7.316ZM180.917 21.154C179.699 21.154 178.607 20.8973 177.639 20.384C176.671 19.8707 175.915 19.1593 175.373 18.25C174.83 17.326 174.559 16.2847 174.559 15.126C174.559 13.9673 174.83 12.9333 175.373 12.024C175.915 11.1147 176.663 10.4033 177.617 9.89C178.585 9.37667 179.685 9.12 180.917 9.12C182.075 9.12 183.087 9.35467 183.953 9.824C184.833 10.2933 185.493 10.968 185.933 11.848L183.821 13.08C183.483 12.5373 183.058 12.134 182.545 11.87C182.046 11.5913 181.496 11.452 180.895 11.452C179.868 11.452 179.017 11.7893 178.343 12.464C177.668 13.124 177.331 14.0113 177.331 15.126C177.331 16.2407 177.661 17.1353 178.321 17.81C178.995 18.47 179.853 18.8 180.895 18.8C181.496 18.8 182.046 18.668 182.545 18.404C183.058 18.1253 183.483 17.7147 183.821 17.172L185.933 18.404C185.478 19.284 184.811 19.966 183.931 20.45C183.065 20.9193 182.061 21.154 180.917 21.154ZM191.94 21.154C190.987 21.154 190.055 21.0293 189.146 20.78C188.237 20.5307 187.511 20.2153 186.968 19.834L188.024 17.744C188.552 18.096 189.183 18.382 189.916 18.602C190.664 18.8073 191.397 18.91 192.116 18.91C193.759 18.91 194.58 18.4773 194.58 17.612C194.58 17.2013 194.367 16.9153 193.942 16.754C193.531 16.5927 192.864 16.4387 191.94 16.292C190.972 16.1453 190.18 15.9767 189.564 15.786C188.963 15.5953 188.435 15.2653 187.98 14.796C187.54 14.312 187.32 13.6447 187.32 12.794C187.32 11.6793 187.782 10.792 188.706 10.132C189.645 9.45733 190.906 9.12 192.49 9.12C193.297 9.12 194.103 9.21533 194.91 9.406C195.717 9.582 196.377 9.824 196.89 10.132L195.834 12.222C194.837 11.6353 193.715 11.342 192.468 11.342C191.661 11.342 191.045 11.4667 190.62 11.716C190.209 11.9507 190.004 12.266 190.004 12.662C190.004 13.102 190.224 13.4173 190.664 13.608C191.119 13.784 191.815 13.9527 192.754 14.114C193.693 14.2607 194.463 14.4293 195.064 14.62C195.665 14.8107 196.179 15.1333 196.604 15.588C197.044 16.0427 197.264 16.688 197.264 17.524C197.264 18.624 196.787 19.504 195.834 20.164C194.881 20.824 193.583 21.154 191.94 21.154Z" fill="white"/>
<rect width="26.069" height="21.2414" transform="translate(0.965576 1.96558)" fill="#00263D"/>
<path d="M2.625 1C1.17578 1 0 2.17578 0 3.625V22.875C0 24.3242 1.17578 25.5 2.625 25.5H25.375C26.8242 25.5 28 24.3242 28 22.875V3.625C28 2.17578 26.8242 1 25.375 1H2.625ZM2.625 2.75H8.42188C8.60234 2.75 8.75 2.89766 8.75 3.07812V4.17188C8.75 4.35234 8.60234 4.5 8.42188 4.5H2.07812C1.89766 4.5 1.75 4.35234 1.75 4.17188V3.625C1.75 3.14375 2.14375 2.75 2.625 2.75ZM25.9219 8H2.07812C1.89766 8 1.75 7.85234 1.75 7.67188V5.70312C1.75 5.52266 1.89766 5.375 2.07812 5.375H9.625L11.2766 2.89766C11.3367 2.80469 11.4406 2.75 11.55 2.75H25.375C25.8563 2.75 26.25 3.14375 26.25 3.625V7.67188C26.25 7.85234 26.1023 8 25.9219 8ZM14 22.4375C10.3797 22.4375 7.4375 19.4953 7.4375 15.875C7.4375 12.2547 10.3797 9.3125 14 9.3125C17.6203 9.3125 20.5625 12.2547 20.5625 15.875C20.5625 19.4953 17.6203 22.4375 14 22.4375ZM14 11.0625C11.3477 11.0625 9.1875 13.2227 9.1875 15.875C9.1875 18.5273 11.3477 20.6875 14 20.6875C16.6523 20.6875 18.8125 18.5273 18.8125 15.875C18.8125 13.2227 16.6523 11.0625 14 11.0625ZM11.375 16.75C10.8937 16.75 10.5 16.3563 10.5 15.875C10.5 13.9445 12.0695 12.375 14 12.375C14.4813 12.375 14.875 12.7687 14.875 13.25C14.875 13.7313 14.4813 14.125 14 14.125C13.0375 14.125 12.25 14.9125 12.25 15.875C12.25 16.3563 11.8563 16.75 11.375 16.75Z" fill="white"/>
</svg>
