<svg version="1.2" baseProfile="tiny-ps" xmlns="http://www.w3.org/2000/svg" viewBox="0 0 400 400" width="400" height="400">
	<title>New Project</title>
	<style>
		tspan { white-space:pre }
		.shp0 { fill: #dead8e } 
		.shp1 { fill: #2198dd } 
		.shp2 { fill: #fec29e } 
		.shp3 { fill: #404040 } 
		.shp4 { fill: #2ea8ed } 
		.shp5 { fill: #9aa4af } 
		.shp6 { fill: #2c3a48 } 
		.shp7 { fill: #7d4c2e } 
		.shp8 { fill: #3c4a58 } 
		.shp9 { fill: #6b8389 } 
		.shp10 { fill: #8d5c3e } 
		.shp11 { fill: #34495e } 
		.shp12 { fill: #303030 } 
		.shp13 { fill: #383838 } 
		.shp14 { fill: #414042 } 
		.shp15 { fill: #4d4d4d } 
		.shp16 { fill: #fece57 } 
		.shp17 { fill: #d13f4a } 
	</style>
	<g id="7">
		<g id="&lt;Group&gt;">
			<path id="&lt;Path&gt;" class="shp0" d="M228.02 88.51C227.38 90.24 224.99 100.38 229.61 108.73C231.11 111.45 232.31 112.18 233.91 113.46C226.05 118.33 218.2 123.2 210.34 128.07L206.7 128.07L205.63 120.82L197.46 106.75L228.02 88.51Z" />
			<path id="&lt;Path&gt;" class="shp0" d="M181.88 89.82C179.9 104.07 179.71 114.25 181.31 120.36C176.65 122.15 173.01 122.32 170.39 120.89L171.64 102.38L181.88 89.82Z" />
			<path id="&lt;Path&gt;" class="shp1" d="M181.69 119.23C172.96 119.92 168.3 120.17 167.7 119.96C173.68 148.63 176.97 163.07 177.57 163.28C178.46 163.58 185.79 163.34 192.21 148.63C189.37 145.12 185.86 135.32 181.69 119.23Z" />
			<path id="&lt;Path&gt;" class="shp1" d="M212.2 161.13C219.26 175.05 224.62 189.93 228.27 205.77C231.7 205.95 244.17 206.92 265.65 208.7L239.22 151.59L233.04 142.51L212.2 161.13Z" />
			<g id="&lt;Group&gt;">
				<g id="&lt;Group&gt;">
					<path id="&lt;Path&gt;" class="shp2" d="M196.98 77.17C196.66 77.22 194.53 85.57 194.26 86.38C197.93 86.28 189.93 96.43 191.14 98.24C191.67 99.03 192.79 99.23 193.3 100.02C193.77 100.77 193.55 101.74 193.61 102.62C193.66 103.5 194.41 104.53 195.22 104.19C195.1 105.39 194.98 106.59 194.86 107.79C194.81 108.29 194.76 108.79 194.83 109.28C195.54 114.59 204.31 110.76 207.17 109.99C209.75 109.3 212.32 108.52 214.87 107.67C215.61 107.42 218.02 107.03 218.49 106.31C219.23 105.17 219.97 104.03 220.71 102.9C221.78 101.25 222.76 99.22 224.27 97.95C225.09 97.27 226 96.65 226.6 95.76C227.34 94.68 227.54 93.21 227.12 91.97C226.95 91.47 226.66 91.13 226.62 90.6C226.56 89.97 226.8 89.19 226.88 88.56C227.1 86.76 227.33 84.97 227.56 83.17L224.34 76.46L217.78 73.83L196.98 77.17Z" />
					<path id="&lt;Path&gt;" class="shp3" d="M204.99 86.57C202.48 86.95 200.51 87.28 199.19 87.5C197.73 87.75 196.79 87.91 195.44 87.95C193.9 87.98 192.61 87.83 191.72 87.67C192.28 88.5 192.84 89.32 193.39 90.15C194.07 90.3 195.1 90.47 196.33 90.42C198.44 90.34 199.93 89.67 201.13 89.12C202.12 88.67 203.56 87.88 204.99 86.57Z" />
					<path id="&lt;Path&gt;" class="shp3" d="M193.86 69.92C194.13 69.56 194.41 69.21 194.68 68.85C193.93 68.46 193.17 68.07 192.42 67.67C194.66 65.97 197.03 63.5 199.66 62.24C201.56 61.32 203.94 60.91 206.02 60.39C207.4 60.04 215.32 57.49 215.76 60.42C215.6 59.39 215.4 58.31 215.29 57.29C215.46 58.86 222.92 60.09 224.21 60.73C226.45 61.84 227.65 64.07 229.61 65.29C230.49 65.85 232.41 65.7 233.06 66.36C233.97 67.27 235.26 76.3 233.71 76.79C235.04 76.37 236.38 75.94 237.73 75.51C236.87 77.34 235.78 79.86 235.85 81.92C235.94 84.64 236.59 86.6 235.77 89.4C234.27 94.54 231.98 101.62 227.56 104.57C226.92 105 223.44 101.24 223.4 100.72C223.27 98.86 224.66 94.08 225.46 92.57C226.93 89.78 227.32 82.77 222.54 83.05C221.19 83.13 220.03 84.11 219.41 85.29C218.81 86.44 218.67 87.76 218.62 89.03C218.59 90.17 218.6 91.39 217.95 92.31C217.31 93.22 215.71 93.55 215.06 92.63C214.9 92.4 215.2 90.82 215.15 90.42C215.03 89.45 214.7 88.49 214.2 87.63C213.3 86.08 211.96 84.87 210.19 84.52C210.85 82.65 211.66 80.73 212.26 78.73C209.86 79.91 207.58 81.49 204.99 81.67C202.99 81.82 201.05 80.99 199.1 81.14C196.11 81.38 193.1 83.02 190.44 83.95C190.63 83.88 191.37 82.27 191.26 82C190.94 81.18 189.58 81.29 188.95 81.28C188.03 81.28 186.8 80.86 186.67 79.86C186.61 79.32 186.92 78.88 187.22 78.49C189.36 75.73 191.57 72.88 193.86 69.92Z" />
				</g>
				<path id="&lt;Path&gt;" class="shp3" d="M222.53 99.98L215.63 106.98L198.45 110.95L193.97 108.98C193.77 109.71 193.59 110.69 193.63 111.85C193.7 114.29 194.68 116.09 195.24 116.96C198.75 115.94 202.26 114.91 205.76 113.88L218.47 108.1L222.53 99.98Z" />
				<path id="&lt;Path&gt;" class="shp3" d="M200.81 105.13C198.95 102.46 195.81 100.69 192.33 100.81C192.44 101.72 192.55 102.64 192.65 103.54C195.26 103.87 196.84 102.82 198.74 105.22C199.22 105.83 201.88 112.58 200.11 112.69C200.88 112.65 201.65 112.6 202.42 112.55C202.95 109.85 202.26 107.22 200.81 105.13Z" />
			</g>
			<path id="&lt;Path&gt;" class="shp4" d="M194.17 136.04L204.31 119.32C210.41 110.89 218.78 106.7 229.4 106.76C244.5 109.36 255.07 121.26 262.68 133.61C269.16 144.13 270.15 156.76 272.21 168.82C275.09 188.9 276.91 201.93 277.67 207.92L261.66 208.97C244.1 175.12 234.78 155.36 233.7 149.68C217.79 160.82 203.76 170.97 193.87 177.66C191.6 166.75 188.99 155.83 188.01 144.91L194.17 136.04Z" />
		</g>
		<g id="&lt;Group&gt;">
			<path id="&lt;Path&gt;" class="shp5" d="M142.69 296.26C143.11 296.29 143.44 296.22 143.65 296C143.89 295.75 143.92 295.38 143.89 295.37C143.78 295.34 142.21 298.36 142.06 302.16C141.85 307.4 142.12 310.08 140.43 312.12C139.08 313.74 135.95 313.91 134.81 314.33C131.87 315.42 128.79 315.05 125.13 314.42C119.69 313.48 113.8 311.63 109.04 308.88C111.43 306.56 114.82 305.73 117.76 304.19C123.48 301.19 131.18 293.41 131.84 286.94C134.64 288.69 134.19 291.7 136.91 293.52C137.22 293.73 140.78 296.1 142.69 296.26Z" />
			<path id="&lt;Path&gt;" class="shp6" d="M142.15 310.05C142.14 311.63 142.03 313.19 141.61 314.85C140.81 317.98 139.89 321.09 138.81 324.14C134.85 324.14 130.68 324.16 126.93 322.68C125.57 322.14 124.59 321.1 123.33 320.52C118.91 318.49 116.11 320.15 111.78 320.39C105.34 320.76 98.85 319.74 92.65 318.01C90.09 317.32 83.73 316.84 81.81 315.05C79.19 312.61 83.55 310.43 85.91 310.67C89.18 311 91.99 311.74 95.31 311.63C98.53 311.52 101.66 310.53 104.62 309.29C105.69 308.83 115.51 304.07 115.91 304.53C117.19 306.01 117.77 306.88 119.61 307.53C121.34 308.14 123.05 308.75 124.85 309.17C128.36 309.98 132.18 310.34 135.66 309.17C137.89 308.4 140.11 307.38 142.03 305.99C142.08 307.4 142.15 308.73 142.15 310.05Z" />
			<path id="&lt;Path&gt;" class="shp7" d="M142.21 259.08L159.75 219.24L174.16 213.86L196.23 209.23L235.59 205.28C237.51 206.07 239.43 206.88 241.43 207.36L262.21 235.47L252.64 243.49L214.55 239.1C195.46 237.04 185.34 236.11 184.19 236.3C183.04 236.5 179.28 244.25 172.89 259.55L144.87 303.79L124.33 296.77L142.21 259.08Z" />
		</g>
		<g id="&lt;Group&gt;">
			<g id="&lt;Group&gt;">
				<path id="&lt;Path&gt;" class="shp8" d="M172.89 122.39C172.99 123.4 173.05 124.46 173.05 125.56L174.2 336.5C174.24 343.48 172.35 349.3 169.99 349.3C164.94 349.3 165.68 343.8 165.64 336.83L164.5 125.88C164.49 124.67 164.54 123.5 164.64 122.39L172.89 122.39Z" />
				<g id="&lt;Group&gt;">
					<path id="&lt;Path&gt;" class="shp8" d="M176.31 122.39L211.72 308.94C212.9 315.18 212.15 322.5 210.04 325.29C207.93 328.08 205.25 325.29 204.07 319.04L168.26 130.41C167.76 127.78 167.62 124.98 167.77 122.39L176.31 122.39Z" />
					<path id="&lt;Path&gt;" class="shp8" d="M127.84 312.11L161.31 122.39L169.75 122.39C169.91 124.95 169.8 127.73 169.34 130.36L135.59 321.63C134.48 327.96 132.95 329.21 129.69 328.33C126.47 327.46 126.72 318.44 127.84 312.11Z" />
				</g>
			</g>
			<path id="&lt;Path&gt;" class="shp8" d="M160.01 117.29L176.65 117.29C178.85 117.29 180.64 119.2 180.64 121.54L180.64 123.97C180.64 126.32 178.85 128.22 176.65 128.22L160.01 128.22C157.81 128.22 156.02 126.32 156.02 123.97L156.02 121.54C156.02 119.2 157.81 117.29 160.01 117.29Z" />
		</g>
		<g id="16">
			<path id="1 3 " class="shp9" d="M222.46 252.46L286.11 252.46C288.97 218.2 310.78 169.07 315.33 159.11C315.63 158.45 316.58 158.47 316.85 159.16C317.45 160.71 318.44 163.06 319.73 165.5C311.41 177.62 304.12 207.98 297.85 256.58L297.85 334.69L289.73 334.69L289.73 262.05L227.79 262.05L227.79 333.08L219.67 333.08L219.67 262.05L218.83 262.05L218.83 256.58C218.83 254.3 220.46 252.46 222.46 252.46Z" />
			<g id="2 1 ">
				<path id="&lt;Path&gt;" class="shp5" d="M210.29 297.78C211.75 299.08 216.38 309.32 219.5 311.98C222.01 314.12 226.37 316.04 226.94 318.03C227.4 319.6 225.71 319.47 225.13 320.91C220.95 331.33 212.56 339.95 202.32 344.33C203.66 343.76 209.26 327.97 209.3 325.53C209.4 319.62 200.62 309.94 197.02 305.85C209.18 300.13 208.11 295.84 210.29 297.78Z" />
				<path id="&lt;Path&gt;" class="shp10" d="M277.32 207.32L281.52 227.18C282.33 231.01 281.96 234.99 280.46 238.59L274.72 252.46C260.7 253.88 246.62 252.84 232.58 253.99C225.84 254.54 212.2 255.38 191.67 256.51L194.56 262.63C208.21 288.48 216.58 303.66 219.67 308.17L205.03 323.89L170.39 273.73L162.62 250.02C161.61 246.93 162.23 243.53 164.28 241.01L170.74 233.06L213.81 218.45L224.78 211.18L228.01 204.69L277.32 207.32Z" />
				<path id="&lt;Path&gt;" class="shp11" d="M225.98 316.39C226.28 316.59 220.5 326.63 219.93 327.49C217.62 331 215.08 333.25 211.04 334.68C209.84 335.11 208.33 335.18 206.51 334.91C203.95 339.35 202.1 342.12 200.96 343.21C196.8 347.19 191.68 350.15 186.15 351.71C185.05 352.02 183.81 352.38 183.27 353.4C180.29 359.13 194.19 356.93 196.2 356.57C200.12 355.87 204.04 355.16 207.97 354.45C210.44 354.05 214.16 350.5 216.16 348.98C218.88 346.92 221.54 344.61 223.69 341.91C224.53 340.86 225.2 339.25 226.34 338.52C227.26 337.93 228.52 338.11 229.51 337.61C230.97 336.89 233.71 334.25 237.72 329.69C237.39 328.37 237.05 327.41 236.7 326.82C233.93 322.2 230.38 319.31 225.98 316.39Z" />
				<path id="&lt;Path&gt;" class="shp7" d="M246.34 209.57L228.84 215.8L249 225.21C228.78 221.31 213.42 219.18 202.91 218.82C207.86 217.56 216.63 212.91 229.21 204.88C236.39 204.67 242.1 206.23 246.34 209.57Z" />
			</g>
		</g>
		<g id="&lt;Group&gt;">
			<g id="&lt;Group&gt;">
				<path id="&lt;Path&gt;" class="shp12" d="M162.56 90L157.83 89.97L157.72 111.87L162.46 111.9L162.56 90Z" />
				<path id="&lt;Path&gt;" class="shp13" d="M121.96 89.79L138.97 89.88L145.16 89.91L152.31 89.95L157.83 89.97L157.81 93.52L121.94 92.97L121.96 89.79Z" />
				<path id="&lt;Path&gt;" class="shp12" d="M121.94 92.97L157.81 93.52L157.78 99.5L121.91 98.79L121.94 92.97Z" />
				<path id="&lt;Path&gt;" class="shp13" d="M121.91 98.79L157.78 99.5L157.75 105.96L121.88 105.59L121.91 98.79Z" />
				<path id="&lt;Path&gt;" class="shp12" d="M157.75 105.96L157.72 111.87L152.21 111.84L145.05 111.81L138.86 111.78L121.85 111.69L121.88 105.59L157.75 105.96Z" />
				<path id="&lt;Path&gt;" class="shp14" d="M180.99 82.52L180.85 111.2C180.85 112.54 181.05 113.62 181.32 113.63L184.25 113.64C184.61 113.64 184.91 112.39 184.92 110.84L185.05 85.35C185.06 83.8 184.77 82.54 184.4 82.54L180.99 82.52Z" />
				<path id="&lt;Path&gt;" class="shp13" d="M175.12 79.33L175.07 79.77L182.02 79.81L181.84 115.84C181.83 117.52 180.48 118.88 178.82 118.87L160.29 118.78C157.99 118.77 156.13 117.18 156.13 115.23C156.4 93 156.67 81.7 156.94 81.34C155.05 81.33 153.53 81.09 153.53 80.8L153.97 75.56L171.73 75.54C173.74 75.54 175.32 77.3 175.12 79.33Z" />
				<path id="&lt;Path&gt;" class="shp12" d="M179.28 85.02L179.23 95.1L183.49 95.12C183.95 95.12 184.32 94.72 184.33 94.21L184.37 85.95C184.37 85.45 184 85.04 183.54 85.04L179.28 85.02Z" />
				<path id="&lt;Path&gt;" class="shp15" d="M171.65 90.14C173.89 90.15 175.7 91.99 175.69 94.26L175.63 107.76C175.61 110.03 173.79 111.86 171.54 111.85C169.3 111.84 167.49 109.99 167.5 107.72L167.57 94.22C167.58 91.95 169.41 90.13 171.65 90.14Z" />
				<path id="&lt;Path&gt;" class="shp13" d="M121.97 87.84L121.84 113.65L131.51 113.69L131.64 87.89L121.97 87.84Z" />
				<path id="&lt;Path&gt;" class="shp14" d="M121.98 84.19L121.82 117.29L113.7 117.25L113.86 84.15L121.98 84.19Z" />
				<path id="&lt;Path&gt;" class="shp15" d="M114.1 83.99C114.11 83.2 113.56 82.46 112.68 82.06L100.9 76.7C99.87 76.23 98.57 76.81 98.57 77.73L98.55 81.24L114.09 87.48L114.1 83.99Z" />
				<path id="&lt;Path&gt;" class="shp12" d="M113.94 117.41L114.01 102.91L98.44 103.48C98.44 103.49 98.44 103.49 98.44 103.49C98.44 104.44 98.85 105.35 99.66 106.06C101.53 107.7 102.69 109.09 103.33 109.97C103.79 110.6 103.76 111.36 103.29 111.99C102.58 112.93 101.35 114.39 99.66 115.79C98.8 116.51 98.37 117.47 98.37 118.45L98.34 123.52C98.34 124.44 99.63 125.03 100.66 124.57L112.49 119.33C113.38 118.94 113.93 118.21 113.94 117.41Z" />
				<path id="&lt;Path&gt;" class="shp14" d="M114.04 97.67L99.5 94.8C98.85 95.47 98.48 96.29 98.47 97.13C98.46 99.83 98.45 101.95 98.44 103.48L114.01 102.91L114.04 97.67Z" />
				<path id="&lt;Path&gt;" class="shp12" d="M114.09 87.48L98.55 81.24L98.54 82.95C98.54 83.66 98.78 84.36 99.25 84.97L102.37 89.37C102.84 90.03 102.81 90.84 102.28 91.47L99.75 94.54C99.66 94.62 99.58 94.71 99.5 94.8L114.04 97.67L114.09 87.48Z" />
			</g>
			<g id="&lt;Group&gt;">
				<path id="&lt;Path&gt;" class="shp12" d="M168.35 72.8L168.34 76.71L160.34 76.69L160.34 72.79L168.35 72.8Z" />
				<path id="&lt;Path&gt;" class="shp12" d="M158.24 60.85L158.23 65.22L158.22 69.35L158.22 71.76C158.22 72.95 159.18 73.92 160.36 73.93L167.84 73.94C169.02 73.94 169.99 72.97 169.99 71.78L170.01 60.88L158.24 60.85Z" />
				<path id="&lt;Path&gt;" class="shp3" d="M147.11 44.06L165.31 42.02C166.61 41.87 167.79 42.76 168.02 44.06L168.62 47.41L148.07 50.31L147.11 44.06Z" />
				<path id="&lt;Path&gt;" class="shp13" d="M168.62 47.41L170.02 55.28L149.37 58.71L148.07 50.31L168.62 47.41Z" />
				<path id="&lt;Path&gt;" class="shp16" d="M144.67 44.33L147.11 44.06L149.37 58.71L146.8 59.13L144.67 44.33Z" />
				<path id="&lt;Path&gt;" class="shp15" d="M157.4 58.05C157.39 62.06 160.6 65.32 164.57 65.33C168.55 65.34 171.77 62.09 171.78 58.07C171.78 54.06 168.57 50.8 164.6 50.79C160.63 50.78 157.41 54.03 157.4 58.05Z" />
				<path id="&lt;Path&gt;" class="shp14" d="M159.75 58.05C159.75 60.75 161.91 62.94 164.58 62.95C167.25 62.95 169.42 60.77 169.42 58.07C169.43 55.37 167.27 53.18 164.6 53.17C161.93 53.17 159.76 55.35 159.75 58.05Z" />
				<path id="&lt;Path&gt;" class="shp17" d="M158.23 65.22L158.22 69.35L160.4 69.23L160.52 65.25L158.23 65.22Z" />
			</g>
		</g>
		<g id="&lt;Group&gt;">
			<path id="&lt;Path&gt;" class="shp2" d="M161.24 124.68L160.95 117.76L161.43 113.38C160.61 110.83 159.49 108.42 158.83 105.83C158.02 102.63 157.17 99.44 156.58 96.22C156.35 94.95 155.78 93.75 155.69 92.45C155.65 91.84 155.71 91.2 156.04 90.68C156.3 90.27 157.17 89.59 157.68 89.61C158.27 89.63 158.92 90.71 159.25 91.18C159.71 91.82 160.42 92.98 160.56 93.75C160.3 92.38 160.05 91.01 159.79 89.63C159.38 87.51 159.22 85.94 159.99 83.85C160.36 82.86 161.24 81.94 162.4 82.43C163.46 82.88 163.71 84.58 164.07 85.58C164.74 87.42 165.41 89.27 166.08 91.11C165.6 88.77 165.12 86.42 164.64 84.08C164.25 82.14 163.25 77.28 166 76.47C168.09 75.86 168.44 78.24 168.74 79.69C169.37 82.63 170.32 85.66 170.65 88.65L169.08 69.44C169.22 68.48 169.93 67.71 170.86 67.51L171.24 67.43C172.48 67.16 173.37 69.43 173.41 70.4L175.21 88.83L175.74 93.18L178.2 88.85C178.46 87.6 178.73 86.35 178.99 85.09C179.13 84.42 179.17 83.51 179.57 82.93C180.07 82.2 182.29 79.22 183.27 79.87C184.13 80.45 183.18 83.4 183.02 84.2C183.02 84.2 182.14 88.54 180.38 97.23L176.78 110.97L176.66 119.89L177.06 124.07L161.91 124.91L161.24 124.68Z" />
			<path id="&lt;Path&gt;" class="shp4" d="M177.48 122.83L180.4 139.33C181.61 142.33 182.53 146.52 183.16 151.9L188.01 144.91C188.99 155.83 191.6 166.75 193.87 177.66C189.27 180.78 185.55 183.15 182.98 184.51C181.23 184.45 180.05 184.05 179.25 183.63C178.68 183.37 178.13 183.04 177.61 182.66C171.84 178.37 167.64 171.41 164.99 161.8C161.5 149.08 159.64 136.5 159.41 124.05L177.48 122.83Z" />
		</g>
	</g>
</svg>