<svg version="1.2" baseProfile="tiny-ps" xmlns="http://www.w3.org/2000/svg" viewBox="0 0 400 400" width="400" height="400">
	<title>New Project</title>
	<style>
		tspan { white-space:pre }
		.shp0 { fill: #bccad8 } 
		.shp1 { fill: #e9b899 } 
		.shp2 { fill: #fec29e } 
		.shp3 { fill: #505050 } 
		.shp4 { fill: #404040 } 
		.shp5 { fill: #ffffff } 
		.shp6 { fill: #5c6a78 } 
		.shp7 { fill: #4d5a68 } 
		.shp8 { fill: #0ead99 } 
		.shp9 { fill: #0ea08b } 
		.shp10 { fill: #3c4a58 } 
		.shp11 { fill: #2c3a48 } 
		.shp12 { fill: #303030 } 
		.shp13 { fill: #d13f4a } 
		.shp14 { fill: #414042 } 
		.shp15 { fill: #6c7a88 } 
		.shp16 { fill: #0dcdc0 } 
		.shp17 { opacity: 0.459;fill: #48647c } 
		.shp18 { fill: #fce2aa } 
	</style>
	<g id="5">
		<g id="&lt;Group&gt;">
			<g id="&lt;Group&gt;">
				<path id="&lt;Path&gt;" class="shp0" d="M181.27 357.39L181.27 363.05L194.89 361.61L194.32 355.95L181.27 357.39Z" />
				<path id="&lt;Path&gt;" class="shp0" d="M236.85 355.29L236.85 360.95L250.47 362.16L249.9 353.85L236.85 355.29Z" />
				<path id="&lt;Path&gt;" class="shp1" d="M222.3 77.6C220.87 75.78 219.28 74.14 218.61 71.9C216.81 65.91 218.08 56.87 218.49 56.92C214.09 56.4 209.1 59.62 204.68 59.49C200.16 59.35 191.07 54.06 191.43 58.58C191.55 60.1 191.91 62.03 192.16 64.14C196.23 74.98 210.3 81.82 222.3 77.6Z" />
				<path id="&lt;Path&gt;" class="shp2" d="M222.3 77.6C210.3 81.82 196.23 74.98 192.16 64.14C192.63 68.17 192.66 72.84 189.73 76.49C189.04 77.36 182.68 87.13 183.57 87.55C183.59 87.56 183.62 87.56 183.62 87.55C185.11 87.2 200.78 104.53 202.63 105.51C208.46 108.6 216.67 92.81 220.24 89.44C223.38 86.48 226.17 83.66 223.54 79.34C223.16 78.73 222.74 78.16 222.3 77.6Z" />
				<g id="&lt;Group&gt;">
					<path id="&lt;Path&gt;" class="shp2" d="M225.51 41.84C225.16 41.52 222.5 40.59 222.72 42C222.42 40.13 222.13 38.26 221.84 36.4C220.55 28.22 212.29 24.55 204.83 25.15C204.71 25.16 204.58 25.18 204.46 25.19C204.33 25.18 204.2 25.16 204.08 25.15C196.62 24.55 188.35 28.22 187.07 36.4C186.78 38.26 186.49 40.13 186.19 42C186.41 40.59 183.75 41.52 183.39 41.84C179.32 45.5 182.73 51.91 184.77 55.73C185.67 57.42 187.25 58.21 189.51 58.11C191.07 62.56 192.51 65.36 193.81 66.53C196.26 68.72 200.44 72.75 204.46 72.75C209.68 71.6 213.2 68.44 215.1 66.53C216.34 65.28 217.65 62.29 219.05 57.58C221.54 58.03 223.24 57.42 224.14 55.73C226.18 51.91 229.59 45.5 225.51 41.84Z" />
					<path id="&lt;Path&gt;" class="shp3" d="M208.64 14.16C205.4 13.84 202.09 14.21 199.06 15.37C198.1 15.73 196.88 16.71 195.4 18.3C194.51 18.24 193.21 18.41 191.51 18.82C188.48 19.53 185.71 21.73 184.27 24.49C183.84 25.33 183.5 26.18 183.24 27.03C193.02 29.65 203.63 23.05 208.64 14.16Z" />
					<path id="&lt;Path&gt;" class="shp4" d="M227.38 32.87C226.95 30.11 226.19 27.41 224.98 24.83C223.57 21.82 221.23 19.33 218.46 17.54C215.54 15.65 212.13 14.51 208.64 14.16C203.63 23.05 193.02 29.65 183.24 27.03C181.72 31.93 182.7 37.06 182.6 42.29C182.6 42.32 185.1 44.04 185.43 44.38C186.56 45.59 187.38 47.01 187.96 48.55C188.01 47.27 187.59 46.17 187.44 44.93C187.24 43.31 187.68 41.68 187.96 40.1C188.64 36.26 190.99 32.44 192 28.68C198.94 29.36 204.26 30.04 211.2 30.72C211.21 29.99 211.22 29.26 211.23 28.54C211.21 29.77 213.7 31.17 214.56 31.71C216.27 32.77 217.79 34.11 219.07 35.65C221.76 39.02 221.01 42.88 222.49 46.83C223.02 44.68 225.02 42.96 226.77 42.96C226.92 40.05 227.81 35.68 227.38 32.87Z" />
					<g id="&lt;Group&gt;">
						<path id="&lt;Path&gt;" class="shp5" d="M197.78 61.48L211.57 61.48C206.74 68.14 202.14 68.14 197.78 61.48Z" />
						<path id="&lt;Path&gt;" class="shp4" d="M190.28 44.36C195.37 41.93 198.99 42.2 201.15 45.17C201.15 45.84 201.15 46.18 201.15 46.18C198.25 44.43 194.63 43.82 190.28 44.36Z" />
						<path id="&lt;Path&gt;" class="shp4" d="M218.82 44.36C213.73 41.93 210.1 42.2 207.95 45.17C207.95 45.84 207.95 46.18 207.95 46.18C210.84 44.43 214.47 43.82 218.82 44.36Z" />
						<path id="&lt;Path&gt;" class="shp1" d="M208.42 57.2L200.93 57.2L202.11 56.56C202.93 56.12 203.85 55.89 204.78 55.89C205.96 55.89 207.11 56.26 208.07 56.95L208.42 57.2Z" />
					</g>
				</g>
				<path id="&lt;Path&gt;" class="shp6" d="M243.71 208.44L243.61 207.63L228.3 185.8L181.17 185.8L164.46 208.03L163.91 209.7L179.61 358.42L196.31 358.01L203.45 221.68L235.43 354.78L251.07 355.95L243.71 208.44Z" />
				<path id="&lt;Path&gt;" class="shp7" d="M199.31 186.02C197.98 201.56 198.79 211.33 201.75 215.32C202.64 209.11 203.23 198.9 203.53 184.69L199.31 186.02Z" />
				<g id="&lt;Group&gt;">
					<path id="&lt;Path&gt;" class="shp7" d="M171.34 185.8L164.46 208.03L181.17 185.8L171.34 185.8Z" />
					<path id="&lt;Path&gt;" class="shp7" d="M238.16 185.8L228.3 185.8L243.61 207.63L238.16 185.8Z" />
				</g>
				<path id="&lt;Path&gt;" class="shp8" d="M234.88 139.36C234.81 128.36 235.04 118.11 235.24 111.63C235.3 111.55 235.35 111.47 235.41 111.39C235.44 110.56 235.47 109.9 235.49 109.44L257.79 96.83L250.04 84.93C248.65 81 243.79 78.9 239.54 77.93L219.73 73.39C216.44 89.3 211.45 98.28 204.76 100.32C200.17 96.91 195.16 88.42 189.71 74.84L168.09 80.96C164.79 81.72 161.43 83.64 159.73 86.43L150.24 100.59L171.34 115.1L171.44 116.54C189.78 130.28 212.13 139.49 234.88 139.36Z" />
				<path id="&lt;Path&gt;" class="shp9" d="M234.88 139.36C212.13 139.49 189.78 130.28 171.44 116.54L171.48 117.12C171.59 117.25 171.69 117.37 171.8 117.5L174.15 153.61L171.34 185.8C174.96 186.16 178.74 186.4 182.69 186.54C182.69 186.56 182.69 186.58 182.69 186.6C195.05 186.8 214.91 187.01 229.03 186.71C229.03 186.76 229.04 186.81 229.05 186.86C232.17 186.79 235.42 186.86 238.16 185.8C237.83 178.69 235.55 166.28 235.12 153.02C234.98 148.48 234.9 143.86 234.88 139.36Z" />
				<g id="&lt;Group&gt;">
					<path id="&lt;Path&gt;" class="shp10" d="M236.3 358.42C234.68 361.52 234.39 364.99 235.43 368.83C235.58 369.39 235.77 369.98 236.02 370.57C240.48 373.04 242.91 374.43 243.37 374.41C241.31 369.52 239.05 363.35 236.85 358.46L236.3 358.42Z" />
					<path id="&lt;Path&gt;" class="shp7" d="M263.83 379.66L262.94 377.37L257.36 372.7L257.03 372.41L251.4 359.61L245.59 357.45L240.19 358.72L236.85 358.46C239.05 363.35 240.62 368.24 242.67 373.13C242.73 373.13 242.78 373.13 242.82 373.12C242.89 373.41 242.99 373.78 243.13 374.22C243.59 375.27 244.07 376.32 244.6 377.37C244.07 376.32 243.59 375.27 243.13 374.22C243.84 376.42 245.83 381.26 249.92 382.39C250.54 382.57 251.17 382.68 251.81 382.75C253.62 382.94 255.68 382.84 257.59 382.61C258.08 382.53 258.55 382.46 259.02 382.39C260.31 382.2 261.48 381.95 262.39 381.74C262.44 381.72 262.5 381.7 262.55 381.7C263.05 381.58 263.47 381.47 263.79 381.38C263.88 381.31 263.97 381.2 264.02 381.06C264.04 380.99 264.08 380.92 264.08 380.83C264.09 380.76 264.09 380.58 264.09 380.35L263.83 379.66Z" />
					<path id="&lt;Path&gt;" class="shp11" d="M263.79 381.38C263.88 381.31 263.97 381.2 264.02 381.06C264.04 380.99 264.08 380.92 264.08 380.83C264.09 380.76 264.09 380.58 264.09 380.35L263.83 379.66C263.54 380.12 263.28 380.71 262.21 380.92C249.7 384.08 244.84 377.35 243.37 374.41C242.96 373.61 242.29 372.99 241.49 372.58C239.48 371.56 236.04 369.4 235.43 368.83C235.5 369.1 235.58 369.39 235.68 369.69C235.78 369.98 235.89 370.27 236.02 370.57C239.57 372.53 241.69 373.89 242.38 374.63C243.86 378.82 246.37 381.41 249.92 382.39C250.54 382.57 251.17 382.68 251.81 382.75C252.13 382.8 252.46 382.84 252.78 382.84C252.82 382.84 252.85 382.84 252.89 382.84C253.08 382.85 253.28 382.85 253.48 382.85C254.54 382.91 255.62 382.84 256.67 382.71C256.97 382.68 257.29 382.64 257.59 382.61C258.08 382.53 258.55 382.46 259.02 382.39L262.39 381.74L262.55 381.7L263.79 381.38Z" />
				</g>
				<g id="&lt;Group&gt;">
					<path id="&lt;Path&gt;" class="shp10" d="M195.32 360.87C196.99 363.95 197.33 367.41 196.34 371.26C196.21 371.83 196.02 372.42 195.78 373.01C191.36 375.55 188.95 376.98 188.5 376.96C190.48 372.04 192.65 365.84 194.78 360.92L195.32 360.87Z" />
					<path id="&lt;Path&gt;" class="shp7" d="M167.91 382.15L168.8 379.86L174.38 375.19L174.72 374.9L180.34 362.1L185.11 359.61L191.55 361.21L194.89 360.95C192.69 365.84 191.12 370.74 189.07 375.63C189.01 375.62 188.96 375.62 188.92 375.61C188.85 375.9 188.75 376.27 188.61 376.71C188.15 377.76 187.67 378.81 187.15 379.86C187.67 378.81 188.15 377.76 188.61 376.71C187.9 378.91 185.91 383.75 181.82 384.88C181.2 385.06 180.58 385.17 179.94 385.24C178.13 385.44 176.06 385.33 174.15 385.1C173.67 385.03 173.19 384.96 172.73 384.88C171.43 384.69 170.26 384.44 169.35 384.23C169.3 384.21 169.25 384.19 169.19 384.19C168.7 384.07 168.27 383.96 167.95 383.87C167.86 383.8 167.77 383.69 167.72 383.55C167.7 383.48 167.67 383.41 167.67 383.32C167.65 383.25 167.65 383.07 167.65 382.84L167.91 382.15Z" />
					<path id="&lt;Path&gt;" class="shp11" d="M169.19 384.19L169.35 384.23L172.73 384.88C173.19 384.96 173.67 385.03 174.15 385.1C174.45 385.13 174.77 385.17 175.07 385.21C176.12 385.33 177.2 385.4 178.27 385.35C178.46 385.35 178.66 385.35 178.85 385.33C178.89 385.33 178.92 385.33 178.96 385.33C179.28 385.33 179.62 385.29 179.94 385.24C180.58 385.17 181.2 385.06 181.82 384.88C185.37 383.9 187.89 381.31 189.37 377.12C190.05 376.38 192.17 375.02 195.72 373.06C195.85 372.76 195.96 372.47 196.06 372.18C196.16 371.88 196.24 371.59 196.31 371.32C195.7 371.9 192.26 374.05 190.25 375.08C189.45 375.48 188.78 376.1 188.38 376.9C186.9 379.84 182.04 386.57 169.53 383.41C168.46 383.2 168.2 382.61 167.91 382.15L167.65 382.84C167.65 383.07 167.65 383.25 167.67 383.32C167.67 383.41 167.7 383.48 167.72 383.55C167.77 383.69 167.86 383.8 167.95 383.87L169.19 384.19Z" />
				</g>
			</g>
			<path id="&lt;Path&gt;" class="shp2" d="M270.8 137.34C270.75 134.46 270.34 131.64 269.86 129.79C268.55 124.73 266.61 119.84 264.51 115.07C264.04 113.99 256.05 97.92 255.75 98.08C255.75 98.08 249.61 101.52 237.34 108.39C242.14 119.1 246.42 127.5 250.18 133.57C249.83 133.54 249.49 133.5 249.15 133.47C241.17 132.97 233.03 134.83 225.12 136.04C223.73 136.25 222.32 136.37 220.94 136.32C217.94 136.21 215.23 134.93 213.8 132.16C213.13 130.87 212.86 129.63 213.08 128.16C213.23 127.11 213.55 125.63 212.86 124.64C212.41 124 209.69 128.05 209.63 129.32C209.52 131.9 209 134.86 208.19 137.31C207.18 140.39 204.59 142.96 200.43 145.03C197.43 146.37 194.97 146.14 193.03 144.33C191.81 143.19 188.11 139.35 186.34 140.69C185.05 141.67 187.54 145.4 188.21 146.49C189.2 148.08 193.39 150.52 196.34 152.1C198.15 153.06 200.31 153.09 202.17 152.15C205.28 150.57 210.34 148.21 214.18 147.43C215.33 147.19 216.51 147.18 217.68 147.26C221.7 147.53 225.73 149.43 229.77 150.13C237.59 151.49 246.55 151.51 254.43 150.51C258.38 150.01 265.32 149.72 268.45 147.05C270.85 145.01 270.85 140.16 270.8 137.34Z" />
		</g>
		<g id="&lt;Group&gt;">
			<g id="&lt;Group&gt;">
				<path id="&lt;Path&gt;" class="shp4" d="M211.83 122.73C211.83 121.77 211 121 209.97 121L180.82 121C179.79 121 178.95 121.77 178.95 122.73L178.95 130.96L211.83 130.96L211.83 122.73Z" />
				<g id="&lt;Group&gt;">
					<path id="&lt;Path&gt;" class="shp4" d="M183.16 129.09C183.14 129.46 183.11 129.99 183.07 130.69C183.01 131.74 182.9 133.24 182.85 135.19C182.76 139.06 182.54 144.61 182.86 151.24C183 154.56 183.25 158.15 183.62 161.93C184 165.75 184.37 169.76 185.12 173.81C185.48 175.83 185.92 177.87 186.46 179.9C187.02 181.91 187.62 184.04 188.32 186C189.03 187.97 189.89 189.89 191.12 191.41C191.71 192.16 192.46 192.84 193.17 193.28L193.86 193.66L194.41 193.88L195.03 194.04L195.65 194.09C197.3 194.07 198.84 192.8 200.05 191.21C201.26 189.6 202.21 187.7 203.04 185.76C204.71 181.86 205.75 177.7 206.66 173.67C207.57 169.62 208.16 165.75 208.51 161.97C208.87 158.21 209.02 154.63 209.06 151.33C209.09 148.03 209.08 144.99 208.99 142.3C208.91 139.62 208.78 137.27 208.67 135.33C208.53 133.4 208.42 131.88 208.35 130.85C208.35 130.33 208.17 129.94 208.39 129.65C208.5 129.51 208.65 129.4 208.79 129.32C208.87 129.27 208.95 129.23 209.02 129.2L212.16 128.96C212.24 130.46 212.35 132.52 212.5 135.14C212.67 139.07 212.88 144.7 212.62 151.49C212.48 154.88 212.23 158.55 211.75 162.42C211.27 166.26 210.55 170.4 209.51 174.48C208.48 178.57 207.31 182.8 205.53 186.97C204.63 189.04 203.6 191.12 202.13 193.03C201.39 193.98 200.54 194.9 199.47 195.64C198.41 196.38 197.06 196.91 195.67 196.92C195.33 196.9 194.98 196.87 194.64 196.84L193.66 196.61L192.67 196.22L191.95 195.83C190.75 195.13 189.87 194.3 189.06 193.34C187.48 191.42 186.5 189.24 185.7 187.11C184.89 184.95 184.3 182.91 183.67 180.78C183.08 178.66 182.59 176.54 182.2 174.45C181.39 170.26 180.88 166.21 180.38 162.41C179.89 158.56 179.53 154.92 179.28 151.55C178.78 144.81 179.01 139.35 178.95 135.42C178.94 132.8 179.1 130.34 179.43 128.04L183.16 129.09Z" />
					<path id="&lt;Path&gt;" class="shp12" d="M178.95 130.96L178.95 139.72C178.95 140.47 179.79 141.09 180.82 141.09L209.97 141.09C211 141.09 211.83 140.47 211.83 139.72L211.83 130.96L178.95 130.96Z" />
					<g id="&lt;Group&gt;">
						<path id="&lt;Path&gt;" class="shp13" d="M185.5 124.06L185.5 122.27L180.41 122.27L180.41 124.06L185.5 124.06Z" />
						<path id="&lt;Path&gt;" class="shp12" d="M210.09 121.75C210.09 121.75 210.09 121.74 210.09 121.74L210.09 120.96C210.09 120.51 209.73 120.15 209.28 120.15L204.97 120.15C204.52 120.15 204.16 120.51 204.16 120.96L204.16 121.74C204.16 121.74 204.16 121.75 204.16 121.75L210.09 121.75Z" />
						<path id="&lt;Path&gt;" class="shp3" d="M211.82 124.06L211.7 124.06L211.7 129.08L211.82 129.08C212.27 129.08 212.63 128.77 212.63 128.39L212.63 124.75C212.63 124.37 212.27 124.06 211.82 124.06Z" />
						<path id="&lt;Path&gt;" class="shp3" d="M178.82 129.66L178.95 129.66L178.95 124.64L178.82 124.64C178.38 124.64 178.01 124.95 178.01 125.33L178.01 128.97C178.01 129.35 178.38 129.66 178.82 129.66Z" />
						<path id="&lt;Path&gt;" class="shp4" d="M200.72 117.03L192.33 117.03C191.79 117.03 191.08 117.98 190.53 119.44L202.52 119.44C201.97 117.98 201.26 117.03 200.72 117.03Z" />
						<path id="&lt;Path&gt;" class="shp12" d="M202.52 119.44L190.53 119.44C190.43 119.72 190.33 120.01 190.24 120.32C189.56 122.7 189.63 125.03 190.53 125.03L202.52 125.03C203.43 125.03 203.49 122.7 202.81 120.32C202.72 120.01 202.62 119.72 202.52 119.44Z" />
						<path id="&lt;Path&gt;" class="shp3" d="M208.75 133.06C208.75 140.03 203.1 145.67 196.13 145.67C189.17 145.67 183.52 140.03 183.52 133.06C183.52 126.09 189.17 120.44 196.13 120.44C203.1 120.44 208.75 126.09 208.75 133.06Z" />
						<path id="&lt;Path&gt;" class="shp14" d="M206.77 133.06C206.77 138.93 202.01 143.7 196.13 143.7C190.26 143.7 185.5 138.93 185.5 133.06C185.5 127.18 190.26 122.42 196.13 122.42C202.01 122.42 206.77 127.18 206.77 133.06Z" />
						<path id="&lt;Path&gt;" class="shp15" d="M204.16 133.06C204.16 137.49 200.57 141.09 196.13 141.09C191.7 141.09 188.11 137.49 188.11 133.06C188.11 128.63 191.7 125.03 196.13 125.03C200.57 125.03 204.16 128.63 204.16 133.06Z" />
						<path id="&lt;Path&gt;" class="shp16" d="M199.73 127.66L192.26 138.25C193.35 139.06 194.68 139.55 196.13 139.55C199.72 139.55 202.63 136.65 202.63 133.06C202.63 130.8 201.48 128.82 199.73 127.66Z" />
						<path id="&lt;Path&gt;" class="shp8" d="M196.13 126.56C192.54 126.56 189.64 129.47 189.64 133.06C189.64 135.19 190.68 137.06 192.26 138.25L199.73 127.66C198.7 126.97 197.47 126.56 196.13 126.56Z" />
						<path id="&lt;Path&gt;" class="shp17" d="M198.7 133.17C198.7 134.59 197.55 135.74 196.13 135.74C194.71 135.74 193.57 134.59 193.57 133.17C193.57 131.75 194.71 130.6 196.13 130.6C197.55 130.6 198.7 131.75 198.7 133.17Z" />
					</g>
				</g>
			</g>
			<path id="&lt;Path&gt;" class="shp18" d="M182.83 126.06C182.83 126.66 182.34 127.15 181.74 127.15C181.14 127.15 180.65 126.66 180.65 126.06C180.65 125.46 181.14 124.97 181.74 124.97C182.34 124.97 182.83 125.46 182.83 126.06Z" />
		</g>
		<g id="&lt;Group&gt;">
			<path id="&lt;Path&gt;" class="shp2" d="M167.3 120.82C168.94 118.57 170.29 116.66 171.34 115.1L152.17 101.91C135.34 124.01 127.17 138.66 127.66 145.85C134.67 130.74 150.09 122.03 167.3 120.82Z" />
			<path id="&lt;Path&gt;" class="shp1" d="M127.66 145.85C127.94 150.01 132.08 150.85 143.04 145.17C149.25 144.46 161.08 129.35 167.3 120.82C150.09 122.03 134.67 130.74 127.66 145.85Z" />
		</g>
		<path id="&lt;Path&gt;" class="shp2" d="M199.19 114.17C198.32 113.38 197.18 112.97 196.14 112.5C195.09 112.02 193.81 111.3 192.64 111.27C191.85 111.25 189.92 112.04 186.86 113.66L190.86 110.83C191.56 110.46 192.39 110.4 193.12 110.71C194.69 111.37 195.86 112.33 197.71 112.63C198.68 112.8 200.29 112.01 199.44 110.85C198.88 110.09 197.78 109.86 197 109.42C195.66 108.65 194.3 107.9 192.97 107.1C192.43 106.78 191.77 106.74 191.21 107.02L185.47 109.66L188.33 104.36C188.35 104.31 191.67 104.59 191.92 104.57C192.93 104.51 195.94 104.43 196.26 103.05C196.64 101.42 193.84 101.49 192.97 101.41C191.76 101.3 190.53 101.39 189.32 101.27C185.5 100.89 184.77 103.71 182.51 106.81C181.63 108.02 181.13 109.5 180.55 110.89C179.3 115.32 179.03 120.15 174.66 122.24C169.27 124.83 163.02 124.17 157.3 125.32C152.8 126.23 148.32 127.42 143.95 129.04C141.75 129.86 140.04 130.58 138.11 131.97C137.34 132.53 136.58 133.12 135.83 133.73C132.97 136.09 129.77 139.19 128.38 142.81C127.67 144.67 127.57 146.46 128.68 148.17C130.89 151.57 136.77 150.9 140.14 150.72C150.1 150.19 160.41 143.25 168.54 137.9C170.79 136.42 173.01 134.72 175.46 133.66C177.95 132.59 180.59 131.98 183.09 130.94C187.93 128.95 188.71 124.07 192.03 120.64C192.55 120.09 193.33 119.28 194.37 118.22C197.61 119.54 199.2 119.56 199.14 118.26C199.07 116.78 196.96 116.3 195.79 115.82C194.58 115.32 193.74 115.36 192.73 116C191.38 116.85 190.33 116.93 188.99 117.77C190.36 116.62 192.08 115.61 193.06 115.06C193.56 114.78 194.14 114.71 194.69 114.87C195.76 115.16 197.52 115.68 198.16 116.04C198.44 116.2 198.74 116.36 199.06 116.39C199.68 116.45 200.03 115.95 199.97 115.36C199.92 114.83 199.58 114.52 199.19 114.17Z" />
	</g>
</svg>