<svg version="1.2" baseProfile="tiny-ps" xmlns="http://www.w3.org/2000/svg" viewBox="0 0 400 400" width="400" height="400">
	<title>New Project</title>
	<style>
		tspan { white-space:pre }
		.shp0 { fill: #95a5a6 } 
		.shp1 { fill: #5c6a78 } 
		.shp2 { fill: #4d5a68 } 
		.shp3 { fill: #1d2a38 } 
		.shp4 { fill: #2c3e50 } 
		.shp5 { fill: #34495e } 
		.shp6 { fill: #dead8e } 
		.shp7 { fill: #fec29e } 
		.shp8 { fill: #9d6c4e } 
		.shp9 { fill: #404040 } 
		.shp10 { fill: #303030 } 
		.shp11 { fill: #414042 } 
		.shp12 { fill: #4d4d4d } 
		.shp13 { fill: #58595b } 
		.shp14 { fill: #0ead99 } 
		.shp15 { fill: #0dcdc0 } 
		.shp16 { fill: #ad7c5e } 
	</style>
	<g id="12">
		<g id="&lt;Group&gt;">
			<g id="&lt;Group&gt;">
				<path id="&lt;Path&gt;" class="shp0" d="M45.65 189.24C45.13 189.42 43.82 188.35 41.73 186.04L53.02 174.9L56.89 179.54L45.65 189.24Z" />
				<g id="&lt;Group&gt;">
					<path id="&lt;Path&gt;" class="shp1" d="M52.22 172.42L54.3 175.38L42.33 187.82C38.42 186.37 34.75 186.68 31.33 188.75C26.43 191.72 17.46 193.59 11.44 203.03C11.03 203.66 10.11 203.7 9.63 203.11L8.08 201.21L34.21 171.67C39.63 174.63 46.64 175.51 52.22 172.42Z" />
					<path id="&lt;Path&gt;" class="shp2" d="M34.21 171.67L42.53 162.28C43.73 163.06 45.21 163.95 46.96 164.94L52.22 172.42C46.64 175.51 39.63 174.63 34.21 171.67Z" />
				</g>
				<g id="&lt;Group&gt;">
					<path id="&lt;Path&gt;" class="shp3" d="M42.53 162.28L8.08 201.21L7 199.89L31.48 172.29L33.26 172.06L32.9 170.09C38.19 163.59 40.85 160.54 40.89 160.94C40.91 161.15 41.62 161.67 42.53 162.28Z" />
				</g>
				<g id="&lt;Group&gt;">
					<path id="&lt;Path&gt;" class="shp3" d="M25.53 187.4C25.25 187.76 25.28 188.28 25.63 188.59C26.03 188.96 26.28 189.53 26.3 190.15C26.32 190.78 26.12 191.36 25.74 191.76C25.41 192.11 25.43 192.65 25.77 192.99C26.12 193.31 26.67 193.3 27 192.95C27.7 192.21 28.08 191.17 28.03 190.09C27.99 189 27.54 187.99 26.79 187.3C26.43 186.98 25.89 187.01 25.56 187.37C25.55 187.38 25.54 187.39 25.53 187.4Z" />
				</g>
				<g id="&lt;Group&gt;">
					<path id="&lt;Path&gt;" class="shp3" d="M30.19 183.69C29.95 183.99 29.93 184.44 30.18 184.77C31.22 186.12 31.5 188.01 30.89 189.61C30.72 190.05 30.94 190.55 31.39 190.72C31.84 190.9 32.34 190.68 32.51 190.23C33.33 188.08 32.96 185.52 31.55 183.7C31.26 183.33 30.71 183.26 30.34 183.55C30.28 183.59 30.23 183.64 30.19 183.69Z" />
				</g>
				<g id="&lt;Group&gt;">
					<path id="&lt;Path&gt;" class="shp3" d="M35.34 181.97C35.11 182.26 35.08 182.67 35.28 182.99C36.16 184.35 36.16 186.25 35.28 187.61C35.03 188.01 35.14 188.55 35.55 188.81C35.95 189.07 36.48 188.94 36.74 188.55C38 186.61 38 183.99 36.74 182.05C36.48 181.65 35.94 181.53 35.54 181.79C35.46 181.84 35.4 181.9 35.34 181.97Z" />
				</g>
			</g>
			<path id="&lt;Path&gt;" class="shp4" d="M43.36 188.84C43.54 189.23 47.68 185.52 55.78 177.69L96.37 212.55L110.74 228.33L123.42 233.96C135.06 231.84 146.7 229.72 158.34 227.61C175.99 224.39 197.65 217 214.67 225.35C215.66 225.84 216.64 226.38 217.59 226.96C215.08 234.98 211.64 242.96 205.73 248.94C198.11 256.66 189.7 256.42 179.81 257.62C173.82 258.35 167.71 258.54 161.69 258.99C147.59 260.05 133.49 261.11 119.38 262.17C116.86 262.36 114.34 262.55 111.83 262.74L106.26 261.27C103.75 260.61 101.63 258.92 100.43 256.62L96.18 248.53L43.36 188.84Z" />
		</g>
		<g id="&lt;Group&gt;">
			<g id="&lt;Group&gt;">
				<path id="&lt;Path&gt;" class="shp0" d="M82.99 161.81C82.44 161.77 81.69 160.26 80.72 157.3L95.59 151.75L97.21 157.56L82.99 161.81Z" />
				<g id="&lt;Group&gt;">
					<g id="&lt;Group&gt;">
						<path id="&lt;Path&gt;" class="shp1" d="M95.87 149.16L96.56 152.71L80.55 159.16C77.57 156.24 74.09 155.03 70.13 155.51C64.87 156.16 59.91 157.92 52.06 163.3C50.46 164.39 48.25 163.57 47.75 161.7L64.48 147.62L79.75 141.11C83.47 146.03 89.51 149.69 95.87 149.16Z" />
						<path id="&lt;Path&gt;" class="shp2" d="M79.75 141.11L91.18 135.94C91.95 137.15 92.94 138.56 94.13 140.18L95.87 149.16C89.51 149.69 83.47 146.03 79.75 141.11Z" />
					</g>
					<g id="&lt;Group&gt;">
						<path id="&lt;Path&gt;" class="shp3" d="M91.18 135.94L64.48 147.62L47.75 161.7L47.3 160.05L63.48 145.76L77 140.56L78.71 141.07L79.19 139.13C86.68 135.36 90.36 133.66 90.23 134.05C90.17 134.25 90.59 135.02 91.18 135.94Z" />
					</g>
					<g id="&lt;Group&gt;">
						<path id="&lt;Path&gt;" class="shp3" d="M65.49 151.51C65.08 151.72 64.9 152.21 65.08 152.63C65.3 153.14 65.3 153.76 65.06 154.34C64.83 154.91 64.4 155.36 63.9 155.57C63.45 155.76 63.24 156.26 63.42 156.7C63.6 157.15 64.11 157.36 64.55 157.18C65.5 156.78 66.26 155.99 66.67 154.99C67.08 153.98 67.08 152.86 66.67 151.94C66.48 151.5 65.97 151.3 65.53 151.49C65.51 151.5 65.5 151.5 65.49 151.51Z" />
					</g>
					<g id="&lt;Group&gt;">
						<path id="&lt;Path&gt;" class="shp3" d="M71.26 150.03C70.91 150.21 70.71 150.61 70.81 151.01C71.21 152.67 70.68 154.51 69.47 155.72C69.13 156.05 69.13 156.6 69.47 156.94C69.81 157.28 70.36 157.28 70.7 156.94C72.33 155.32 73.03 152.83 72.49 150.6C72.38 150.14 71.91 149.85 71.44 149.96C71.38 149.98 71.32 150 71.26 150.03Z" />
					</g>
					<g id="&lt;Group&gt;">
						<path id="&lt;Path&gt;" class="shp3" d="M76.66 150.57C76.33 150.74 76.13 151.1 76.19 151.48C76.43 153.08 75.66 154.81 74.3 155.69C73.9 155.95 73.78 156.49 74.05 156.89C74.31 157.29 74.84 157.39 75.25 157.15C77.18 155.89 78.25 153.5 77.9 151.22C77.83 150.74 77.39 150.42 76.92 150.49C76.82 150.5 76.74 150.53 76.66 150.57Z" />
					</g>
				</g>
			</g>
			<path id="&lt;Path&gt;" class="shp5" d="M220.32 242.98C218.97 238.36 220.19 233.27 220.63 228.5C211.47 220.29 198.39 217.33 186.17 218.81C179.88 219.57 175.72 222.5 170.04 225.09C164.92 227.43 159.6 229.32 154.37 231.41C149.94 233.18 144.24 233.45 139.52 234.55C133.23 236 126.93 237.46 120.64 238.92L123.94 222.53C124.49 219.81 124.34 216.99 123.52 214.34L118.79 199.17L97.26 155.59L81.94 160.4L99.58 230.72L103.88 255.93L111.89 262.1L132.72 266.49C173.27 265.55 201.38 264.9 217.03 264.54C217.41 262.87 217.83 261.2 217.98 259.47C218.08 258.26 219.54 257.97 220.19 258.58C220.22 258.53 220.23 258.47 220.26 258.42C220.43 258.1 220.67 257.93 220.93 257.85L220.93 244.93C220.72 244.28 220.51 243.64 220.32 242.98Z" />
		</g>
		<g id="&lt;Group&gt;">
			<path id="&lt;Path&gt;" class="shp6" d="M309.13 196.12C308.96 196.18 308.74 196.26 308.45 196.35C306.01 197.15 297.68 199.6 293.23 197.15C289.67 195.02 287.19 190.94 285.81 184.92C291.37 179.4 294.33 176.75 294.69 176.95C295.05 177.16 299.86 183.55 309.13 196.12Z" />
			<path id="&lt;Path&gt;" class="shp7" d="M304.91 192.28C307.66 194.82 311.97 199.51 316.16 199.09C318.44 198.86 317.95 197.23 318.45 195.72C318.91 194.34 320.37 193.56 321.44 192.79C322.83 191.79 322.17 189.73 323.42 188.66C324.31 187.89 327.51 188.89 327.57 187.54C327.71 184.82 327.23 182.09 327.52 179.41C327.74 177.45 329.19 176.01 330.08 174.29C331.17 172.18 331.65 169.95 331.73 167.57C331.89 162.67 330.22 157.53 327.09 153.73C322.17 147.73 309.91 146.59 302.98 148.41C295.41 150.39 287.57 160.47 287.89 167.13C288.39 177.59 297.78 185.68 304.91 192.28Z" />
			<path id="&lt;Path&gt;" class="shp8" d="M302.53 144.69C305.98 142.95 310.25 142.97 315.33 144.75C322.07 146.56 327.28 150.61 332.13 147.72C331.94 149.54 330.63 151 328.22 152.07C331.67 154.28 334.46 154.82 336.59 153.7C336.98 153.5 333.52 161.99 326.48 161.17C318.75 160.96 313.3 168.58 312.24 173.39C311.37 173.35 310.75 173.25 310.38 173.09C311.21 170.4 310.82 168.33 309.23 166.88C308.98 166.65 308.64 166.51 308.31 166.51C305.05 166.52 303.46 171.79 303.56 176.4C303.65 178.27 304.09 179.21 304.86 179.24C303.1 179.44 301.08 180.38 298.79 182.04C296.46 183.75 295.48 184.22 295.87 183.46C293.75 179.65 290.54 177.01 286.22 175.54C284.52 170.49 285.5 163.3 286.04 158.97C286.28 157.02 288.65 152.74 290.18 151.51L302.53 144.69Z" />
			<path id="&lt;Path&gt;" class="shp9" d="M311.54 226.22C310.52 215.8 308.7 205.28 304.6 195.59C302.23 189.96 299.08 184.81 295.32 180C293.41 177.55 291.37 175.19 289.27 172.9C288.67 172.24 287.14 170.17 284.71 166.68C284.02 169.08 283.54 170.93 283.25 172.23C283.04 173.17 282.71 174.06 282.34 174.94C282.56 175.17 282.79 175.39 283.01 175.61C284.39 176.95 286.11 178.01 286.92 179.75C287.96 182.01 288.46 184.66 289.08 187.06C290.06 190.81 291.11 194.64 291.61 198.49C292.4 204.59 299.74 208.18 300.46 214.29C302.09 228.33 309.05 253.7 309.81 260.97L318.07 257.36C318.13 240.96 313.13 242.56 311.54 226.22Z" />
			<path id="&lt;Path&gt;" class="shp6" d="M333.74 183.1C329.3 195.37 325.13 203.62 321.24 207.83C324.26 211.26 327.14 212.96 329.87 212.93L336.71 197.56L333.74 183.1Z" />
			<g id="&lt;Group&gt;">
				<path id="&lt;Path&gt;" class="shp10" d="M345.03 181.71L348.46 182.6L344.38 198.27L340.95 197.38L345.03 181.71Z" />
				<path id="&lt;Path&gt;" class="shp10" d="M348.46 182.6L352.44 183.64L357.62 184.99L362.1 186.15L374.41 189.36L370.33 205.02L358.02 201.82L353.54 200.66L348.37 199.31L344.38 198.27L348.46 182.6Z" />
				<path id="&lt;Path&gt;" class="shp10" d="M332.9 170.7L326.2 196.48C325.88 197.69 326.6 198.91 327.81 199.23L341.21 202.71C342.88 203.15 344.53 202.37 344.89 200.97L350.85 178.06C351.21 176.67 350.15 175.18 348.48 174.75L332.9 170.7Z" />
				<path id="&lt;Path&gt;" class="shp11" d="M333.13 172.83L327.79 193.36C327.54 194.31 327.19 195.05 327 195L324.88 194.45C324.61 194.38 324.63 193.43 324.92 192.32L329.66 174.08C329.95 172.97 330.4 172.13 330.66 172.19L333.13 172.83Z" />
				<path id="&lt;Path&gt;" class="shp10" d="M337.85 172.3L338.32 170.52C338.54 169.65 339.44 169.14 340.33 169.37L344.99 170.83C345.73 171.07 346.16 171.84 345.96 172.59L345.6 173.99C345.55 174.16 344.96 174.15 344.27 173.97L337.85 172.3Z" />
				<path id="&lt;Path&gt;" class="shp10" d="M333.9 174.95L332.02 182.16L328.93 181.36C328.6 181.27 328.41 180.91 328.5 180.55L330.04 174.64C330.13 174.28 330.48 174.06 330.81 174.15L333.9 174.95Z" />
				<path id="&lt;Path&gt;" class="shp9" d="M335.5 179.31L331.46 194.84L337.33 196.37L341.37 180.83L335.5 179.31Z" />
				<path id="&lt;Path&gt;" class="shp10" d="M374.77 187.95L369.97 206.42L362.97 204.6L367.77 186.14L374.77 187.95Z" />
				<path id="&lt;Path&gt;" class="shp11" d="M375.45 185.34L369.29 209.03L375.16 210.56L381.32 186.87L375.45 185.34Z" />
				<path id="&lt;Path&gt;" class="shp12" d="M381.18 186.72C381.33 186.15 381.86 185.72 382.58 185.61L392.1 184.04C392.93 183.9 393.76 184.56 393.6 185.22L392.94 187.73L380.53 189.21L381.18 186.72Z" />
				<path id="&lt;Path&gt;" class="shp10" d="M374.96 210.63L377.66 200.25L388.8 203.65C388.8 203.65 388.8 203.65 388.8 203.66C388.62 204.33 388.15 204.9 387.43 205.25C385.77 206.07 384.67 206.83 384.04 207.34C383.58 207.7 383.46 208.26 383.68 208.79C384.02 209.6 384.63 210.88 385.58 212.21C386.07 212.89 386.2 213.66 386.01 214.36L385.07 217.98C384.9 218.64 383.85 218.82 383.2 218.29L375.64 212.28C375.07 211.83 374.81 211.2 374.96 210.63Z" />
				<path id="&lt;Path&gt;" class="shp11" d="M378.63 196.5L389.68 197.24C390.02 197.84 390.14 198.5 389.98 199.1C389.48 201.04 389.09 202.55 388.8 203.65L377.66 200.25L378.63 196.5Z" />
				<path id="&lt;Path&gt;" class="shp10" d="M380.53 189.21L392.94 187.73L392.62 188.96C392.49 189.46 392.18 189.91 391.73 190.26L388.64 192.81C388.18 193.19 388.05 193.77 388.3 194.32L389.55 197.01C389.6 197.08 389.64 197.16 389.68 197.24L378.63 196.5L380.53 189.21Z" />
			</g>
			<path id="&lt;Path&gt;" class="shp13" d="M329.46 194.72C329.97 204.87 329.56 221.08 323.48 239.73C317.17 259.11 315.18 256.02 309.81 260.97C312.56 259.77 320.36 258.78 323.11 257.57C335.01 252.5 338.23 231.9 332.77 195.79C332.42 193.43 331.31 193.08 329.46 194.72Z" />
			<path id="&lt;Path&gt;" class="shp14" d="M321.41 206.76C328.19 211.06 331.87 213.25 332.44 213.34C315.43 233.76 306.64 243.93 306.07 243.84C305.21 243.7 299.38 240.36 300.42 225.81C304.21 224.22 311.21 217.87 321.41 206.76Z" />
			<path id="&lt;Path&gt;" class="shp7" d="M335.68 219.9L338.85 214.47L340.32 210.76C342.07 209.06 344 207.61 345.63 205.82C347.64 203.61 349.69 201.41 351.53 199.08C352.26 198.16 353.23 197.44 353.85 196.44C354.14 195.97 354.37 195.44 354.32 194.87C354.28 194.43 353.87 193.52 353.45 193.31C352.96 193.07 351.97 193.66 351.5 193.89C350.87 194.21 349.79 194.84 349.35 195.4C350.14 194.41 350.94 193.42 351.73 192.43C352.96 190.9 353.75 189.71 354.02 187.7C354.14 186.75 353.81 185.64 352.66 185.53C351.61 185.44 350.69 186.7 349.97 187.34C348.65 188.53 347.33 189.72 346 190.91C347.38 189.24 348.77 187.57 350.15 185.89C351.29 184.51 354.16 181.04 352.28 179.21C350.84 177.83 349.55 179.59 348.69 180.61C346.93 182.7 344.87 184.73 343.34 186.98L352.76 172.25C353.06 171.43 352.81 170.51 352.14 169.94L351.86 169.71C350.97 168.96 349.29 170.41 348.84 171.16L339.56 185.17L337.29 188.43L337.13 183.9C337.45 182.78 337.77 181.67 338.09 180.55C338.26 179.95 338.61 179.2 338.54 178.57C338.44 177.77 337.91 174.43 336.84 174.53C335.89 174.62 335.4 177.4 335.2 178.11C335.2 178.11 334.07 181.97 331.82 189.68L328.9 202.24L325.21 209.45L323.11 212.63L335.04 219.79L335.68 219.9Z" />
			<path id="&lt;Path&gt;" class="shp14" d="M213.11 249.14L213.11 264.16C214.53 264.47 216.05 264.54 217.48 264.49C230.12 264.11 242.63 262.13 254.13 256.88C261.08 253.68 275.27 247.46 279.61 239.24C280.37 237.84 280.83 236.37 280.91 234.87C280.98 233.68 280.83 232.46 280.37 231.17C277.25 221.8 273.39 212.64 269.91 203.4L261.06 208.02L241.61 222.69C234.28 228.02 228.06 235.68 219.18 238.58C217.96 239.01 216.13 239.06 214.28 239.16L213.11 249.14Z" />
			<path id="&lt;Path&gt;" class="shp15" d="M323.3 211.45L313.93 223.42C311.68 225.31 309.16 228.28 306.37 232.32L304.17 214.88L303.04 197.12C301.67 187.75 296.67 180.81 288.04 176.29C274.7 171.91 266.35 181.08 255.67 188.83C240.12 200.11 232.67 215.9 215.93 224.96L213.1 249.14C213.98 249.02 215.17 248.48 216.85 247.53C223.45 243.83 229.59 238.77 235.78 234.42C245.78 227.36 259.44 220.23 267.21 210.56C279.19 233.66 285.28 258.16 290.03 265.07C291.48 265.77 292.6 265.95 293.42 265.97C294 266 294.58 265.97 295.17 265.89C301.67 264.92 308.91 258.97 316.89 248.05C325.12 239.35 331.96 230.06 337.43 220.18L323.3 211.45Z" />
			<path id="&lt;Path&gt;" class="shp8" d="M328.17 174.44L321.4 171.92L326.31 175.99L328.17 174.44Z" />
			<path id="&lt;Path&gt;" class="shp16" d="M334.82 155.18C334.55 155.25 334.1 155.76 333.85 155.94C332.93 156.58 331.94 157.13 330.92 157.61C327.76 159.1 324.22 159.82 320.72 159.44C319.33 159.29 317.96 158.97 316.64 158.5C314.13 157.61 311.9 155.92 309.76 154.36C308.2 153.23 306.7 152.03 305.16 150.88C304.15 150.15 303.1 149.45 301.92 149.05C300.55 148.59 299.08 148.51 297.65 148.51C297.61 148.51 297.57 148.51 297.53 148.51C302.3 147.07 308.21 148.6 310.9 151C308.19 147.79 303.96 146.31 301.44 146.49C305.7 145.05 313.93 145.29 320.53 148.89C322.31 149.67 327.37 150.95 329.47 149.71C327.18 153.04 321.46 152.7 317.73 150.85C319.81 152.93 325.17 157.88 334.82 155.18Z" />
		</g>
		<path id="&lt;Path&gt;" class="shp4" d="M213.1 223.32L218.75 223.32L217.48 264.49L210.56 264.51L213.1 223.32Z" />
	</g>
</svg>