<svg version="1.2" baseProfile="tiny-ps" xmlns="http://www.w3.org/2000/svg" viewBox="0 0 400 400" width="400" height="400">
	<title>New Project</title>
	<style>
		tspan { white-space:pre }
		.shp0 { fill: #3c4a58 } 
		.shp1 { fill: #4d5a68 } 
		.shp2 { fill: #f4b798 } 
		.shp3 { fill: #5c6a78 } 
		.shp4 { fill: #7d4c2e } 
		.shp5 { fill: #9d6c4e } 
		.shp6 { fill: #5d2c10 } 
		.shp7 { fill: #0abfad } 
		.shp8 { fill: #dead8e } 
		.shp9 { fill: #bd8c6d } 
		.shp10 { fill: #d3a283 } 
		.shp11 { fill: #0dcdc0 } 
		.shp12 { fill: #fec29e } 
		.shp13 { fill: #d13f4a } 
		.shp14 { fill: #414042 } 
		.shp15 { fill: #303030 } 
		.shp16 { fill: #505050 } 
		.shp17 { fill: #48647c } 
		.shp18 { fill: #3498db } 
		.shp19 { fill: #2980b9 } 
		.shp20 { opacity: 0.459;fill: #48647c } 
	</style>
	<g id="2">
		<path id="&lt;Path&gt;" class="shp0" d="M178.88 285.46C178.7 286.66 180.23 288.61 180.77 289.56C182.37 292.38 184.1 295.12 185.84 297.85C190.33 304.92 195.04 311.86 199.67 318.84C202.62 323.3 206.44 327.44 212.08 328.02C210.61 326.31 208.89 324.67 207.52 322.9C206.47 321.55 206.4 319.76 206.07 318.07C205.38 314.49 204.68 310.91 203.99 307.33C202.58 300.1 201.18 292.88 199.78 285.66C199.02 281.73 198.25 277.8 197.49 273.87L188.92 255.89L178.88 285.46Z" />
		<path id="&lt;Path&gt;" class="shp1" d="M222.76 238.11C229.72 264.62 229.96 291.76 231.04 318.99C231.15 321.66 230.21 324.26 228.42 326.24L224.83 330.09C222.98 331.91 214.39 332.37 212.02 331.84C208.23 330.99 204.75 326.12 202.69 323.11C196.78 314.47 195.49 303.66 193.4 293.66C191.53 284.7 189.65 275.74 187.78 266.78L191.44 231.93L222.76 238.11Z" />
		<path id="&lt;Path&gt;" class="shp2" d="M249.92 98.48C249.05 101.02 247.75 103.4 246.08 105.5C245.26 106.53 244.32 107.53 243.1 108.02C241.88 108.52 240.33 108.41 239.43 107.45C238.27 106.21 238.6 104.22 239.23 102.64C240.43 99.59 242.42 96.86 244.96 94.79C246.17 93.8 247.9 92.94 249.23 93.77C249.96 94.23 250.34 95.11 250.39 95.97C250.44 96.82 250.2 97.67 249.92 98.48Z" />
		<path id="&lt;Path&gt;" class="shp3" d="M134.24 259.23C135.28 249.45 138.06 239.05 142.57 228.02C151.04 222.93 157.43 222.54 161.75 226.86L160.4 248.98L134.24 259.23Z" />
		<g id="&lt;Group&gt;">
			<path id="&lt;Path&gt;" class="shp4" d="M158.17 315.32C155.63 320.19 155.17 325.63 156.81 331.64C157.03 332.53 157.34 333.45 157.73 334.37C164.72 338.25 167.45 338.44 168.17 338.4C164.94 330.73 162.48 323.06 159.03 315.39L158.17 315.32Z" />
			<path id="&lt;Path&gt;" class="shp5" d="M201.34 348.63L199.95 345.04L191.2 337.72L190.68 337.27L179.28 318.03L170.84 316.32L164.27 315.79L159.03 315.39C162.48 323.06 164.94 330.73 168.17 338.4C168.26 338.4 168.33 338.39 168.39 338.38C168.5 338.84 168.66 339.41 168.89 340.11C169.61 341.75 170.36 343.4 171.18 345.04C170.36 343.4 169.61 341.75 168.89 340.11C170 343.55 173.12 351.15 179.54 352.92C180.51 353.2 181.49 353.37 182.49 353.48C185.33 353.79 188.56 353.62 191.57 353.26C192.32 353.15 193.07 353.03 193.8 352.92C195.83 352.62 197.67 352.23 199.09 351.89C199.17 351.86 199.26 351.84 199.34 351.84C200.12 351.64 200.79 351.47 201.29 351.34C201.43 351.22 201.57 351.06 201.65 350.83C201.68 350.72 201.73 350.61 201.73 350.47C201.76 350.36 201.76 350.08 201.76 349.72L201.34 348.63Z" />
			<path id="&lt;Path&gt;" class="shp6" d="M201.29 351.34C201.43 351.22 201.57 351.06 201.65 350.83C201.68 350.72 201.73 350.61 201.73 350.47C201.76 350.36 201.76 350.08 201.76 349.72L201.34 348.63C200.9 349.36 200.48 350.28 198.81 350.61C179.18 355.57 171.57 345.01 169.25 340.4C168.62 339.15 167.56 338.17 166.31 337.54C163.16 335.94 157.76 332.55 156.81 331.64C156.91 332.07 157.04 332.52 157.2 333C157.36 333.45 157.53 333.91 157.73 334.37C163.3 337.46 166.62 339.58 167.7 340.75C170.02 347.32 173.96 351.38 179.54 352.92C180.51 353.2 181.49 353.37 182.49 353.48C182.99 353.56 183.52 353.62 184.02 353.62C184.08 353.62 184.13 353.62 184.19 353.62C184.49 353.65 184.8 353.65 185.11 353.65C186.78 353.73 188.48 353.62 190.12 353.42C190.59 353.37 191.09 353.31 191.57 353.26C192.32 353.15 193.07 353.03 193.8 352.92L199.09 351.89L199.34 351.84L201.29 351.34Z" />
		</g>
		<path id="&lt;Path&gt;" class="shp7" d="M234.94 119.15L195.26 97.65C193.93 97.25 192.31 96.77 190.41 96.2C184.73 112.99 197.97 128.46 199.51 145.4C204.37 174.53 196.28 202.04 202.75 232.79C203.13 234.51 190.5 239.29 190.96 240.92C201.58 242.17 222.39 239.93 222.58 239.87C222.76 239.81 222.95 234.35 223.12 226.76C223.4 214.95 226.39 198.35 232.08 176.96L249.07 126.24L234.94 119.15Z" />
		<path id="&lt;Path&gt;" class="shp8" d="M232.08 113.23L231.62 118.04L215.21 126.38C209.97 129.05 203.63 125.99 202.44 120.23L199.34 105.2L213.04 109.46L232.08 113.23Z" />
		<path id="&lt;Path&gt;" class="shp2" d="M232.74 69.99C227.02 69.63 221.52 68.68 215.77 68.99C210.59 69.27 206.32 73.69 204.15 78.14C201.91 82.73 201.36 87.98 201.51 93.09C201.66 98.24 202.52 103.48 205.03 107.98C208.32 113.88 213.57 115.58 219.18 118.29C225.18 121.19 231.43 116.19 236.08 112.89C242.15 108.59 240.51 111.16 248.85 94.34C254.39 83.15 246.19 70.85 232.74 69.99Z" />
		<path id="&lt;Path&gt;" class="shp9" d="M246.23 86.08C245.97 85.95 245.7 85.79 245.42 85.61C243.51 84.38 241.61 83.14 239.7 81.91C240.17 82.21 240.83 84.15 241.27 84.72C242.58 86.37 243.84 87.48 244.08 89.65C244.33 91.83 243.97 94.08 243.03 96.06C243.73 96.29 244.43 96.52 245.13 96.74C245.55 95.82 246.32 94.87 247.31 94.52C248.34 94.15 249.41 94.68 250.53 94.73C252.73 94.82 255.04 94.12 256.5 92.4C258.39 90.17 258.52 86.88 258.4 84.09C257.91 85.57 256.97 85.67 255.67 85.75C253.89 85.87 252.15 86.52 250.35 86.67C248.63 86.82 247.54 86.76 246.23 86.08Z" />
		<path id="&lt;Path&gt;" class="shp10" d="M201.7 55.92C205.71 54.33 209.52 51.35 213.5 50.18C215.72 49.52 218.32 48.58 219.93 51.16C220.26 51.69 220.77 52.35 220.42 53.01C222.22 48.88 226.22 46.85 232.42 46.94C241.73 47.08 249.41 58.95 256.97 57.19C256.43 58.54 255.71 59.8 254.81 60.97C260.38 65.37 264.79 66.72 268.03 65.01C266.95 69.47 267.08 73.65 261.01 73.65C265.06 74.59 265.33 75.53 268.03 74.32C265.87 79.04 260.88 83.09 251.3 80.93C255.98 82.01 258.99 82.21 260.34 81.53C258.84 91.88 253.33 94.18 243.8 88.42C239.73 85.86 234.62 79.42 231.77 75.45C230.18 73.25 228.83 70.07 225.97 69.24C220.02 67.53 214.75 71.4 209.95 74.19C204.92 77.13 198.24 80.92 193.74 75.19C189.8 70.17 187.31 65.43 189.28 58.88C189.57 57.93 190 56.93 190.88 56.47C191.98 55.89 193.31 56.37 194.52 56.67C197.02 57.28 199.39 56.83 201.7 55.92Z" />
		<path id="&lt;Path&gt;" class="shp8" d="M223.12 58.81C230.85 54.76 238.5 55.39 246.08 60.69C256.97 67.71 263.04 69.38 266.27 67.43C263.04 71.76 255.77 73.06 250.6 71C254.54 75.2 259.26 78.5 263.64 76.41C262.06 77.17 260.88 78.19 259.09 78.58C257.37 78.96 255.59 78.93 253.87 78.6C247.74 77.42 243.98 72.49 238.8 69.6C235.88 67.97 232.66 66.83 229.32 66.57C228.31 66.49 227.29 66.49 226.28 66.57C225.72 66.62 223.46 66.65 223.12 67.12C225.35 63.99 238.18 62.09 246.58 68.85C246.08 65.08 236.31 55.63 223.12 58.81Z" />
		<path id="&lt;Path&gt;" class="shp11" d="M202.75 232.79C196.28 202.04 204.37 174.53 199.51 145.4C197.97 128.46 184.73 112.99 190.41 96.2C189.03 95.79 187.45 95.32 185.79 94.82C178.9 92.78 170.73 90.37 170.38 90.37C169.98 90.37 162.69 96.73 148.53 109.46L158.99 122.28C162.25 126.28 163.55 131.52 162.58 136.57C162.55 136.73 162.54 136.88 162.51 137.04L142.06 230.36C153.59 234.72 161.86 237.2 166.88 237.8C180.12 239.4 188.86 236.02 204.02 237.8C203.56 236.17 203.13 234.51 202.75 232.79Z" />
		<path id="&lt;Path&gt;" class="shp1" d="M191.83 196.38C179.69 196.92 166.69 207.17 152.85 227.13C137.74 248.98 133.97 258.42 134.24 259.23C134.5 260.03 131.81 270.01 138.01 277.84C144.22 285.66 162.29 286.74 170.38 284.31C175.78 282.69 182.92 267.32 191.83 238.19L191.83 196.38Z" />
		<path id="&lt;Path&gt;" class="shp12" d="M212.74 160.48L231.21 181.71C219.97 192.39 211.38 198.8 205.45 200.96C204.64 201.25 199.7 199.73 190.61 196.38L187.64 188.31C186.05 183.97 184.67 176.89 185.22 172.3C186.83 154.68 188.81 138.87 191.14 124.88L185.22 110.6C186.05 103.59 187.12 97.07 188.45 91.06C190.43 90.06 191.56 90.55 191.83 92.53L193.37 108.64L198.92 115.33C201.13 117.99 206.74 119.29 209.96 118.04C213 116.87 216.63 114.5 220.03 114.79C220.89 114.86 222.78 115.31 223.38 115.94C225.97 118.68 221.29 118.94 219.87 119.42C217.54 120.21 214.34 121.04 212.44 122.67C207.89 126.56 204.22 128.53 204.64 134.54C205.45 145.87 207.76 154.18 206.73 171.87C208.36 170.02 208.35 167.85 209.66 165.65C210.68 163.93 211.71 162.21 212.74 160.48Z" />
		<path id="&lt;Path&gt;" class="shp3" d="M173.62 209.86C173.44 210.94 171.28 219.48 167.14 235.49L157.7 316.68C162.83 321.53 169.88 322.16 178.87 318.56C183.01 305.43 190.04 280.82 199.96 244.73L204.75 229.83C206.63 223.96 207.26 217.76 206.6 211.63L206.06 206.64C205.68 203.12 203.47 200.06 200.25 198.59L197.15 197.18C193.82 195.67 189.95 195.9 186.83 197.81L179.01 202.58L173.62 209.86Z" />
		<path id="&lt;Path&gt;" class="shp11" d="M239.7 122.96C250.22 122.61 256.46 130.7 256.83 139.1C257.24 148.48 254.01 157.77 247.89 164.96C246.45 166.65 231.84 182.49 231.21 181.71C228.78 178.74 222.25 171.22 211.63 159.15L219.45 144.59C226.88 130.37 233.63 123.16 239.7 122.96Z" />
		<g id="&lt;Group&gt;">
			<path id="&lt;Path&gt;" class="shp13" d="M226.13 74.4L222.79 74.4C221.72 74.4 220.86 75.27 220.86 76.33L220.86 82.69C220.86 83.75 221.72 84.62 222.79 84.62L226.13 84.62C227.2 84.62 228.06 83.75 228.06 82.69L228.06 76.33C228.06 75.27 227.2 74.4 226.13 74.4Z" />
			<path id="&lt;Path&gt;" class="shp14" d="M222.68 95.09L222.68 79.9C222.68 78.75 226.49 77.83 231.19 77.83C235.89 77.83 239.7 78.75 239.7 79.9L239.7 95.09C239.7 96.24 235.89 97.17 231.19 97.17C226.49 97.17 222.68 96.24 222.68 95.09Z" />
			<path id="&lt;Path&gt;" class="shp15" d="M236.24 105.92L236.24 75.26C236.24 72.95 226.97 71.07 215.53 71.07C204.1 71.07 194.83 72.95 194.83 75.26L194.83 105.92C194.83 108.23 204.1 110.11 215.53 110.11C226.97 110.11 236.24 108.23 236.24 105.92Z" />
			<g id="&lt;Group&gt;">
				<path id="&lt;Path&gt;" class="shp12" d="M211.42 64.71C210.21 64.4 208.81 64.87 208.11 65.91C207.44 66.91 207.44 68.23 207.83 69.37C208.47 71.28 209.56 72.49 209.97 74.53C210.33 76.28 211.22 78.1 212.66 79.23C214.13 80.37 216.04 79.34 215.63 77.27C215.34 75.82 215.09 74.35 214.75 72.9C214.35 71.16 214.45 69.43 214.03 67.72C213.74 66.54 213.03 65.41 211.93 64.89C211.76 64.81 211.59 64.76 211.42 64.71Z" />
				<path id="&lt;Path&gt;" class="shp12" d="M205.11 66.1L204.65 66.21C203.55 66.48 202.9 67.68 203.19 68.89C203.58 70.52 203.94 72.15 204.36 73.77C204.82 75.55 206.12 77.61 207.42 78.91C208.81 80.31 210.34 79.14 209.87 77.19L207.63 67.83C207.34 66.61 206.21 65.84 205.11 66.1Z" />
				<path id="&lt;Path&gt;" class="shp12" d="M200.04 65.24L199.56 65.36C198.41 65.65 197.72 66.87 198.03 68.08C198.69 70.71 199.21 73.46 200.59 75.83C201.05 76.63 202.21 78.64 203.18 78.88C204.55 79.21 205.32 77.35 205.04 76.25L202.68 66.91C202.37 65.69 201.19 64.95 200.04 65.24Z" />
				<path id="&lt;Path&gt;" class="shp12" d="M170.38 90.37L162.29 85.02C175.42 79.05 182.88 75.26 184.68 73.65C186.48 72.03 191.15 72.28 198.7 74.4L210.72 67.81L215.97 68.79C218.77 75.47 222.32 78.88 226.61 79C224.77 75.73 222.76 71.66 220.59 66.8L210.31 60.7L198.7 60.7L189.8 58.81L184.95 58.81C161.21 62.77 146.55 67.17 140.98 72.03C133.7 78.23 131.81 76.96 134.5 84.48C136.3 89.48 140.98 97.81 148.53 109.46L170.38 90.37Z" />
			</g>
			<g id="&lt;Group&gt;">
				<path id="&lt;Path&gt;" class="shp14" d="M189.16 85.12C183.6 75.8 188.5 65.49 196.21 60.11C205.33 53.76 217.03 57.79 224.29 63.17C232.09 68.96 235.7 76.32 234.47 83.89L229.68 83.11C230.93 75.43 225.03 69.77 221.4 67.08C215.44 62.65 205.99 59.22 198.98 64.1C193.3 68.06 189.11 75.55 193.33 82.63L189.16 85.12Z" />
			</g>
			<g id="&lt;Group&gt;">
				<path id="&lt;Path&gt;" class="shp16" d="M187.35 79.65C186.26 80.6 186.16 82.26 187.11 83.34L193.26 90.34L197.19 86.89L191.04 79.89C190.08 78.81 188.43 78.7 187.35 79.65Z" />
				<path id="&lt;Path&gt;" class="shp16" d="M235.15 80.2C234.2 79.11 232.55 79 231.46 79.96L224.46 86.11L227.91 90.04L234.91 83.88C236 82.93 236.1 81.28 235.15 80.2Z" />
			</g>
			<path id="&lt;Path&gt;" class="shp16" d="M235.05 96.22C235.05 108.28 225.28 118.04 213.23 118.04C201.17 118.04 191.4 108.28 191.4 96.22C191.4 84.17 201.17 74.4 213.23 74.4C225.28 74.4 235.05 84.17 235.05 96.22Z" />
			<path id="&lt;Path&gt;" class="shp14" d="M231.62 96.22C231.62 106.39 223.39 114.62 213.23 114.62C203.06 114.62 194.83 106.39 194.83 96.22C194.83 86.06 203.06 77.83 213.23 77.83C223.39 77.83 231.62 86.06 231.62 96.22Z" />
			<path id="&lt;Path&gt;" class="shp17" d="M227.11 96.22C227.11 103.89 220.89 110.11 213.23 110.11C205.56 110.11 199.34 103.89 199.34 96.22C199.34 88.56 205.56 82.34 213.23 82.34C220.89 82.34 227.11 88.56 227.11 96.22Z" />
			<path id="&lt;Path&gt;" class="shp18" d="M219.45 86.88L206.53 105.2C208.4 106.6 210.71 107.46 213.23 107.46C219.43 107.46 224.46 102.43 224.46 96.22C224.46 92.32 222.47 88.89 219.45 86.88Z" />
			<path id="&lt;Path&gt;" class="shp19" d="M213.23 84.99C207.02 84.99 201.99 90.02 201.99 96.22C201.99 99.91 203.79 103.15 206.53 105.2L219.45 86.88C217.67 85.69 215.53 84.99 213.23 84.99Z" />
			<path id="&lt;Path&gt;" class="shp20" d="M217.67 96.42C217.67 98.87 215.68 100.86 213.23 100.86C210.77 100.86 208.78 98.87 208.78 96.42C208.78 93.97 210.77 91.98 213.23 91.98C215.68 91.98 217.67 93.97 217.67 96.42Z" />
		</g>
		<path id="&lt;Path&gt;" class="shp8" d="M220.86 55.67C227.67 47.05 236.9 48.09 248.57 58.81C245.44 57.39 236.24 50.52 220.86 55.67Z" />
	</g>
</svg>