<svg version="1.2" baseProfile="tiny-ps" xmlns="http://www.w3.org/2000/svg" viewBox="0 0 400 400" width="400" height="400">
	<title>New Project</title>
	<style>
		tspan { white-space:pre }
		.shp0 { fill: #f4b798 } 
		.shp1 { fill: #1688cd } 
		.shp2 { fill: #dead8e } 
		.shp3 { fill: #bd8c6d } 
		.shp4 { fill: #d3a283 } 
		.shp5 { fill: #2198dd } 
		.shp6 { fill: #404040 } 
		.shp7 { fill: #303030 } 
		.shp8 { fill: #fec29e } 
		.shp9 { fill: #d13f4a } 
		.shp10 { fill: #505050 } 
		.shp11 { fill: #414042 } 
		.shp12 { fill: #6c7a88 } 
		.shp13 { fill: #0dcdc0 } 
		.shp14 { fill: #0ead99 } 
		.shp15 { opacity: 0.459;fill: #48647c } 
		.shp16 { fill: #fce2aa } 
		.shp17 { fill: #34495e } 
		.shp18 { fill: #2c3e50 } 
		.shp19 { fill: #bccad8 } 
		.shp20 { fill: #3c4a58 } 
		.shp21 { fill: #4d5a68 } 
		.shp22 { fill: #2c3a48 } 
	</style>
	<g id="8">
		<g id="&lt;Group&gt;">
			<g id="&lt;Group&gt;">
				<path id="&lt;Path&gt;" class="shp0" d="M276.25 82.03C274.69 83.78 272.83 85.26 270.77 86.39C269.76 86.94 268.66 87.42 267.51 87.41C266.36 87.4 265.15 86.78 264.75 85.7C264.23 84.31 265.18 82.81 266.21 81.75C268.22 79.7 270.75 78.17 273.5 77.36C274.82 76.98 276.51 76.87 277.29 78C277.72 78.61 277.74 79.45 277.49 80.16C277.24 80.87 276.75 81.47 276.25 82.03Z" />
				<path id="&lt;Path&gt;" class="shp1" d="M257.15 93.62L232.44 62.8C231.51 62.03 230.37 61.09 229.02 59.99C218.74 71.61 224.17 88.58 219.67 102.76C213.69 127.91 202.21 138.41 197 165.41C196.73 166.92 184.92 166.49 184.73 167.97C189.43 170.96 198.65 173.59 212.38 175.85C214.73 171.1 216.81 166.7 218.62 162.66C222.85 153.22 228.39 145.43 235.23 139.27L266.14 104.13L257.15 93.62Z" />
				<path id="&lt;Path&gt;" class="shp2" d="M256.86 87.87L254.85 91.6L238.78 92.75C233.65 93.12 229.57 88.5 230.57 83.45L233.17 70.28L242.78 78.36L256.86 87.87Z" />
				<path id="&lt;Path&gt;" class="shp0" d="M272.06 53.21C267.57 50.97 263.46 48.35 258.71 46.64C254.44 45.12 249.5 47.22 246.23 50.08C242.87 53.03 240.65 57.07 239.03 61.24C237.41 65.45 236.32 69.97 236.82 74.45C237.47 80.32 241.13 83.48 244.73 87.58C248.59 91.95 255.32 90.04 260.2 88.95C266.55 87.54 264.36 89.06 276.79 78.32C285.06 71.18 282.62 58.47 272.06 53.21Z" />
				<path id="&lt;Path&gt;" class="shp3" d="M277.48 70.77C277.32 70.58 277.15 70.36 276.99 70.11C275.87 68.47 274.75 66.83 273.63 65.19C273.91 65.6 273.78 67.38 273.95 67.99C274.44 69.77 275.08 71.08 274.54 72.92C274 74.76 272.95 76.45 271.52 77.73C272 78.16 272.49 78.58 272.98 79C273.63 78.4 274.58 77.9 275.49 77.95C276.45 78 277.13 78.79 278.01 79.21C279.76 80.03 281.86 80.24 283.62 79.35C285.91 78.19 287.12 75.58 287.98 73.3C287.07 74.33 286.29 74.08 285.21 73.71C283.73 73.2 282.11 73.13 280.6 72.65C279.17 72.18 278.31 71.76 277.48 70.77Z" />
				<path id="&lt;Path&gt;" class="shp4" d="M251.8 31.32C255.57 31.4 259.66 30.3 263.26 30.7C265.29 30.92 267.7 31.05 268.12 33.68C268.21 34.21 268.39 34.92 267.89 35.33C270.74 32.61 274.66 32.33 279.63 34.51C287.09 37.78 289.26 49.96 295.95 51.11C295.06 52.02 294.05 52.79 292.93 53.43C295.93 58.87 299.02 61.45 302.22 61.18C299.83 64.4 298.53 67.82 293.63 65.76C296.57 67.89 296.47 68.75 299.06 68.68C295.71 71.76 290.32 73.33 283.32 68.34C286.73 70.79 289.09 71.98 290.41 71.88C285.69 79.73 280.46 79.71 274.73 71.83C272.32 68.39 270.38 61.45 269.43 57.29C268.89 54.97 268.88 51.95 266.85 50.31C262.64 46.91 257.08 48.24 252.26 48.87C247.2 49.52 240.52 50.32 238.84 44.17C237.37 38.78 236.96 34.11 240.78 29.5C241.33 28.83 242.02 28.17 242.88 28.09C243.97 28 244.88 28.84 245.75 29.49C247.57 30.84 249.63 31.28 251.8 31.32Z" />
				<path id="&lt;Path&gt;" class="shp2" d="M268.1 40.93C275.7 40.29 281.67 43.39 285.98 50.24C292.38 59.6 296.71 63 299.98 62.53C295.9 64.92 289.6 63.51 286.13 60.09C287.88 64.81 290.57 69.08 294.81 68.88C293.28 68.95 291.98 69.38 290.4 69.09C288.89 68.81 287.46 68.17 286.19 67.33C281.64 64.3 280.28 59.05 277.08 54.95C275.29 52.65 273.07 50.63 270.46 49.29C269.68 48.88 268.86 48.53 268.01 48.26C267.54 48.11 265.71 47.37 265.28 47.63C268.14 45.87 279.13 48.69 283.62 56.99C284.49 53.78 279.82 42.84 268.1 40.93Z" />
				<path id="&lt;Path&gt;" class="shp2" d="M267.34 37.63C275.76 32.98 282.86 36.96 288.63 49.57C286.58 47.36 281.5 38.69 267.34 37.63Z" />
				<path id="&lt;Path&gt;" class="shp5" d="M219.67 102.76C224.17 88.58 218.74 71.61 229.02 59.99C228.05 59.18 226.93 58.27 225.76 57.31C220.9 53.32 215.13 48.6 214.84 48.48C214.52 48.35 206.48 51.01 190.74 56.47L194.82 70.35C196.1 74.69 195.37 79.36 192.87 83.11C192.79 83.22 192.73 83.34 192.65 83.46L144.48 151.8C172.6 163.4 191.2 170.59 200.25 173.37C200.44 171.89 213.69 127.91 219.67 102.76Z" />
				<path id="&lt;Path&gt;" class="shp5" d="M259.7 98.3C268.3 101.6 270.59 110.24 268.04 117.13C265.19 124.85 259.42 131.23 252.05 134.96C250.31 135.84 233.16 143.65 232.91 142.81C231.96 139.59 229.24 131.31 224.77 117.97L236.03 108.88C246.85 99.93 254.74 96.41 259.7 98.3Z" />
			</g>
			<g id="&lt;Group&gt;">
				<g id="&lt;Group&gt;">
					<path id="&lt;Path&gt;" class="shp6" d="M262.14 90.72C263.7 90.72 264.96 89.37 264.96 87.7L264.96 40.49C264.96 38.83 263.7 37.47 262.14 37.47L248.82 37.47L248.82 90.72L262.14 90.72Z" />
				</g>
				<path id="&lt;Path&gt;" class="shp6" d="M244.77 42.77C244.33 43.18 243.68 43.75 242.84 44.51C241.59 45.65 239.77 47.25 237.46 49.48C232.86 53.98 226.18 60.28 218.59 68.94C214.79 73.24 210.75 78.05 206.59 83.3C202.41 88.59 198.03 94.1 193.97 100.23C191.93 103.25 189.97 106.4 188.12 109.67C186.33 112.94 184.44 116.38 182.88 119.74C181.32 123.1 180 126.58 179.52 130.02C179.28 131.68 179.27 133.45 179.5 134.88L179.77 136.19L180.08 137.15L180.52 138.1L181.08 138.91C182.71 140.9 185.56 141.31 188.39 140.94C191.19 140.58 194.05 139.59 196.79 138.43C202.22 136.15 207.32 132.89 212.11 129.67C216.87 126.48 221.17 123.11 225.19 119.59C229.17 116.12 232.81 112.59 236.11 109.21C239.4 105.82 242.4 102.68 245 99.78C247.62 96.9 249.86 94.3 251.71 92.15C253.56 89.97 255 88.26 255.99 87.09C256.51 86.56 256.81 85.9 257.18 85.91C257.37 85.93 257.55 86.03 257.69 86.15C257.77 86.2 257.84 86.27 257.91 86.34L259.47 90.48C258.06 92.11 256.13 94.33 253.68 97.17C249.97 101.36 244.64 107.33 237.94 113.87C234.57 117.15 230.84 120.59 226.76 123.98C222.69 127.37 218.12 130.81 213.35 133.87C208.48 136.98 203.3 140.14 197.6 142.61C194.7 143.83 191.65 144.93 188.34 145.38C186.66 145.59 184.89 145.63 183.08 145.23C181.26 144.83 179.37 143.85 177.97 142.2C177.64 141.77 177.32 141.32 177.01 140.86L176.26 139.38L175.67 137.68L175.35 136.32C174.89 133.94 174.91 131.8 175.15 129.57C175.68 125.1 177.19 121.07 178.83 117.31C180.55 113.48 182.35 110.08 184.23 106.49C186.16 102.94 188.21 99.53 190.31 96.29C194.56 89.75 198.96 83.83 203.11 78.21C207.32 72.54 211.42 67.32 215.3 62.65C223.07 53.27 229.84 46.96 234.54 41.97C237.68 38.71 240.73 36.01 243.71 33.87L244.77 42.77Z" />
				<path id="&lt;Path&gt;" class="shp7" d="M248.82 37.47L234.64 37.47C233.41 37.47 232.42 38.83 232.42 40.49L232.42 87.7C232.42 89.37 233.41 90.72 234.64 90.72L248.82 90.72L248.82 37.47Z" />
				<path id="&lt;Path&gt;" class="shp8" d="M225.21 119.42L232.91 142.81C233.41 144.35 204.72 150.41 201.95 150.34C199.82 150.29 197.63 149.65 196.12 148.15C192.25 144.33 195.32 137.93 195.53 133.35C195.71 129.31 197 123.13 199 119.61C206.29 105.95 213.25 93.87 219.88 83.37L219.95 69.84C222.99 64.46 226.08 59.58 229.19 55.18C231.12 55.04 231.86 55.82 231.41 57.5L227.19 71.02L229.39 78.31C230.27 81.2 234.35 84.16 237.38 84.24C240.23 84.33 243.96 83.65 246.61 85.03C247.27 85.38 248.65 86.39 248.92 87.1C250.07 90.19 246.22 88.81 244.91 88.72C242.75 88.56 239.9 88.15 237.8 88.81C232.82 90.41 229.19 90.75 227.49 95.74C224.29 105.16 223.34 112.64 216.5 126.56C218.44 125.62 219.17 123.87 220.97 122.54C222.39 121.5 223.8 120.46 225.21 119.42Z" />
				<g id="&lt;Group&gt;">
					<path id="&lt;Path&gt;" class="shp9" d="M259.99 48.07L262.9 48.07L262.9 39.84L259.99 39.84L259.99 48.07Z" />
					<path id="&lt;Path&gt;" class="shp7" d="M263.73 87.9C263.74 87.9 263.75 87.91 263.75 87.91L265.01 87.91C265.74 87.91 266.33 87.32 266.33 86.59L266.33 79.62C266.33 78.89 265.74 78.29 265.01 78.29L263.75 78.29C263.75 78.29 263.74 78.3 263.73 78.3L263.73 87.9Z" />
					<path id="&lt;Path&gt;" class="shp10" d="M259.99 90.7L259.99 90.5L251.86 90.5L251.86 90.7C251.86 91.43 252.36 92.02 252.98 92.02L258.88 92.02C259.49 92.02 259.99 91.43 259.99 90.7Z" />
					<path id="&lt;Path&gt;" class="shp10" d="M250.93 37.27L250.93 37.47L259.06 37.47L259.06 37.27C259.06 36.54 258.56 35.95 257.94 35.95L252.04 35.95C251.43 35.95 250.93 36.54 250.93 37.27Z" />
					<path id="&lt;Path&gt;" class="shp6" d="M271.38 72.73L271.38 59.13C271.38 58.27 269.84 57.11 267.48 56.23L267.48 75.64C269.84 74.75 271.38 73.59 271.38 72.73Z" />
					<path id="&lt;Path&gt;" class="shp7" d="M267.48 75.64L267.48 56.23C267.02 56.06 266.55 55.89 266.05 55.75C262.2 54.65 258.42 54.76 258.42 56.22L258.42 75.65C258.42 77.11 262.2 77.21 266.05 76.12C266.55 75.97 267.02 75.81 267.48 75.64Z" />
					<path id="&lt;Path&gt;" class="shp10" d="M245.42 85.73C234.14 85.73 224.99 76.58 224.99 65.29C224.99 54.01 234.14 44.87 245.42 44.87C256.71 44.87 265.85 54.01 265.85 65.29C265.85 76.58 256.71 85.73 245.42 85.73Z" />
					<path id="&lt;Path&gt;" class="shp11" d="M245.42 82.52C235.91 82.52 228.2 74.81 228.2 65.29C228.2 55.78 235.91 48.07 245.42 48.07C254.94 48.07 262.65 55.78 262.65 65.29C262.65 74.81 254.94 82.52 245.42 82.52Z" />
					<path id="&lt;Path&gt;" class="shp12" d="M245.42 78.3C238.24 78.3 232.42 72.48 232.42 65.29C232.42 58.12 238.24 52.3 245.42 52.3C252.6 52.3 258.42 58.12 258.42 65.29C258.42 72.48 252.6 78.3 245.42 78.3Z" />
					<g id="&lt;Group&gt;">
						<path id="&lt;Path&gt;" class="shp13" d="M253.66 58.77L236.87 71.36C238.14 73.15 239.94 74.58 242.18 75.3C247.71 77.09 253.64 74.06 255.43 68.54C256.55 65.06 255.77 61.43 253.66 58.77Z" />
						<path id="&lt;Path&gt;" class="shp14" d="M248.66 55.29C243.14 53.5 237.2 56.53 235.41 62.06C234.35 65.34 235.02 68.75 236.87 71.36L253.66 58.77C252.42 57.19 250.72 55.95 248.66 55.29Z" />
						<path id="&lt;Path&gt;" class="shp15" d="M249.32 66.75C248.61 68.94 246.27 70.13 244.09 69.43C241.9 68.72 240.7 66.37 241.41 64.19C242.12 62 244.46 60.81 246.65 61.52C248.83 62.22 250.03 64.57 249.32 66.75Z" />
					</g>
				</g>
				<path id="&lt;Path&gt;" class="shp16" d="M256.76 43.76C255.78 43.76 254.99 42.96 254.99 41.99C254.99 41.01 255.78 40.22 256.76 40.22C257.73 40.22 258.53 41.01 258.53 41.99C258.53 42.96 257.73 43.76 256.76 43.76Z" />
			</g>
			<g id="&lt;Group&gt;">
				<path id="&lt;Path&gt;" class="shp8" d="M256.66 41.72C255.79 41.06 254.5 40.96 253.58 41.56C252.7 42.14 252.25 43.21 252.18 44.25C252.05 46.02 252.52 47.36 252.16 49.14C251.85 50.68 251.96 52.45 252.73 53.85C253.53 55.27 255.42 55.09 255.79 53.28C256.05 52.01 256.35 50.73 256.57 49.45C256.83 47.92 257.5 46.55 257.74 45.03C257.91 43.98 257.72 42.82 257 42.03C256.9 41.92 256.78 41.81 256.66 41.72Z" />
				<path id="&lt;Path&gt;" class="shp8" d="M251.1 40.7L250.69 40.63C249.71 40.47 248.78 41.22 248.6 42.3C248.36 43.74 248.1 45.18 247.89 46.63C247.65 48.22 248 50.32 248.61 51.81C249.26 53.41 250.89 52.99 251.17 51.26L252.54 42.94C252.72 41.86 252.07 40.86 251.1 40.7Z" />
				<path id="&lt;Path&gt;" class="shp8" d="M247.3 38.28L246.87 38.21C245.84 38.06 244.88 38.81 244.71 39.89C244.36 42.24 243.84 44.63 244.15 47.01C244.25 47.81 244.5 49.83 245.2 50.34C246.2 51.08 247.45 49.84 247.6 48.85L248.86 40.52C249.03 39.44 248.33 38.44 247.3 38.28Z" />
				<path id="&lt;Path&gt;" class="shp8" d="M214.84 48.48L210.13 41.42C222.75 41.07 230.05 40.54 232.05 39.85C234.05 39.15 237.74 40.94 243.11 45.22L255.04 43.98L258.94 46.55C258.93 52.89 260.64 56.84 264.06 58.4C263.69 55.14 263.45 51.18 263.34 46.51L257.12 38.1L247.76 34.16L241.22 29.62L237.31 27.97C216.82 23.11 203.5 21.68 197.35 23.71C189.37 26.24 188.28 24.58 187.91 31.55C187.66 36.2 188.6 44.51 190.74 56.47L214.84 48.48Z" />
			</g>
			<path id="&lt;Path&gt;" class="shp17" d="M221.26 197.2L201.27 171.21L151.86 154.82L132.15 176.97L131.53 178.83L114.91 345.31L133.57 346L173.5 198.67L208.65 260.74L209.24 347.41L226.72 348.72L235.9 259.31L221.26 197.2Z" />
			<path id="&lt;Path&gt;" class="shp18" d="M173.91 163.77C169.06 177.83 168.29 187.09 171.6 191.56C172.59 184.61 174.95 175.55 178.66 164.38L173.91 163.77Z" />
			<g id="&lt;Group&gt;">
				<path id="&lt;Path&gt;" class="shp18" d="M144.48 151.8L132.15 176.97L151.86 154.82L144.48 151.8Z" />
				<path id="&lt;Path&gt;" class="shp18" d="M213.69 175.28L201.27 171.21L221.26 197.2L213.69 175.28Z" />
			</g>
		</g>
		<g id="&lt;Group&gt;">
			<path id="&lt;Path&gt;" class="shp19" d="M211.91 345.1L211.91 351.43L227.13 352.78L226.49 343.49L211.91 345.1Z" />
			<g id="&lt;Group&gt;">
				<path id="&lt;Path&gt;" class="shp20" d="M211.29 348.6C209.48 352.06 209.16 355.94 210.32 360.23C210.48 360.86 210.7 361.52 210.98 362.17C215.96 364.93 218.68 366.49 219.19 366.47C216.89 361 214.37 354.11 211.91 348.64L211.29 348.6Z" />
				<path id="&lt;Path&gt;" class="shp21" d="M242.06 372.33L241.06 369.77L234.83 364.55L234.45 364.23L228.16 349.93L221.67 347.51L215.64 348.93L211.91 348.64C214.37 354.11 216.12 359.58 218.42 365.04C218.48 365.04 218.54 365.03 218.58 365.03C218.65 365.35 218.77 365.76 218.93 366.26C219.44 367.43 219.98 368.6 220.56 369.77C219.98 368.6 219.44 367.43 218.93 366.26C219.72 368.71 221.95 374.13 226.52 375.39C227.21 375.59 227.91 375.71 228.62 375.79C230.64 376 232.95 375.89 235.09 375.63C235.63 375.55 236.16 375.47 236.68 375.39C238.13 375.17 239.44 374.89 240.45 374.66C240.51 374.63 240.57 374.61 240.63 374.61C241.18 374.48 241.66 374.36 242.02 374.26C242.12 374.18 242.22 374.06 242.27 373.9C242.29 373.82 242.33 373.74 242.33 373.64C242.35 373.56 242.35 373.36 242.35 373.11L242.06 372.33Z" />
				<path id="&lt;Path&gt;" class="shp22" d="M242.02 374.26C242.12 374.18 242.22 374.06 242.27 373.9C242.29 373.82 242.33 373.74 242.33 373.64C242.35 373.56 242.35 373.36 242.35 373.11L242.06 372.33C241.74 372.85 241.44 373.5 240.25 373.74C226.27 377.28 220.84 369.75 219.19 366.47C218.74 365.57 217.99 364.88 217.09 364.42C214.85 363.29 211 360.87 210.32 360.23C210.4 360.53 210.49 360.85 210.6 361.19C210.71 361.52 210.84 361.84 210.98 362.17C214.95 364.37 217.31 365.88 218.08 366.71C219.74 371.4 222.55 374.29 226.52 375.39C227.21 375.59 227.91 375.71 228.62 375.79C228.98 375.84 229.35 375.89 229.71 375.89C229.75 375.89 229.79 375.89 229.83 375.89C230.05 375.9 230.27 375.9 230.49 375.9C231.68 375.96 232.89 375.89 234.06 375.75C234.4 375.71 234.75 375.67 235.09 375.63C235.63 375.55 236.16 375.47 236.68 375.39L240.45 374.66L240.63 374.61L242.02 374.26Z" />
			</g>
		</g>
		<g id="&lt;Group&gt;">
			<path id="&lt;Path&gt;" class="shp19" d="M116.37 344.92L115.61 351.2L130.92 351.42L131.04 345.06L116.37 344.92Z" />
			<g id="&lt;Group&gt;">
				<path id="&lt;Path&gt;" class="shp20" d="M131.5 350.66C132.93 354.3 132.85 358.19 131.24 362.33C131.01 362.94 130.73 363.57 130.38 364.19C125.13 366.41 122.27 367.68 121.76 367.6C124.63 362.41 127.86 355.82 130.88 350.64L131.5 350.66Z" />
				<path id="&lt;Path&gt;" class="shp21" d="M98.24 370.6L99.53 368.18L106.34 363.74L106.75 363.47L114.71 350.02L120.34 347.9L127.26 350.54L131.01 350.69C127.91 355.83 125.52 361.04 122.58 366.2C122.52 366.19 122.46 366.17 122.42 366.16C122.31 366.47 122.14 366.87 121.92 367.34C121.27 368.44 120.6 369.54 119.88 370.64C120.6 369.54 121.27 368.44 121.92 367.34C120.84 369.68 117.99 374.79 113.3 375.5C112.59 375.61 111.88 375.65 111.16 375.64C109.13 375.61 106.86 375.22 104.76 374.71C104.23 374.56 103.71 374.42 103.21 374.28C101.8 373.89 100.53 373.46 99.55 373.1C99.5 373.07 99.44 373.05 99.38 373.04C98.85 372.84 98.39 372.66 98.05 372.52C97.96 372.43 97.87 372.3 97.83 372.13C97.82 372.05 97.79 371.97 97.8 371.87C97.79 371.79 97.82 371.59 97.85 371.34L98.24 370.6Z" />
				<path id="&lt;Path&gt;" class="shp22" d="M99.38 373.04L99.55 373.1L103.21 374.28C103.71 374.42 104.23 374.56 104.76 374.71C105.09 374.79 105.44 374.87 105.77 374.95C106.91 375.23 108.11 375.45 109.3 375.53C109.51 375.56 109.73 375.59 109.95 375.59C109.99 375.6 110.03 375.6 110.07 375.61C110.42 375.65 110.8 375.66 111.16 375.64C111.88 375.65 112.58 375.61 113.3 375.5C117.37 374.88 120.51 372.35 122.71 367.89C123.57 367.16 126.11 365.94 130.31 364.24C130.49 363.93 130.65 363.62 130.8 363.31C130.95 362.99 131.08 362.68 131.19 362.38C130.44 362.94 126.33 364.88 123.97 365.74C123.03 366.09 122.2 366.68 121.64 367.52C119.61 370.58 113.32 377.4 99.86 372.22C98.71 371.84 98.49 371.15 98.24 370.6L97.85 371.34C97.82 371.59 97.79 371.79 97.8 371.87C97.79 371.97 97.82 372.05 97.83 372.13C97.87 372.3 97.96 372.43 98.05 372.52L99.38 373.04Z" />
			</g>
		</g>
	</g>
</svg>