<svg version="1.2" baseProfile="tiny-ps" xmlns="http://www.w3.org/2000/svg" viewBox="0 0 400 400" width="400" height="400">
	<title>New Project</title>
	<style>
		tspan { white-space:pre }
		.shp0 { fill: #fec29e } 
		.shp1 { fill: #2c3e50 } 
		.shp2 { fill: #7d4c2e } 
		.shp3 { fill: #8d5c3e } 
		.shp4 { fill: #34495e } 
		.shp5 { fill: #f4b595 } 
		.shp6 { fill: #2198dd } 
		.shp7 { fill: #303030 } 
		.shp8 { fill: #383838 } 
		.shp9 { fill: #414042 } 
		.shp10 { fill: #4d4d4d } 
		.shp11 { fill: #d3a283 } 
		.shp12 { fill: #2ea8ed } 
		.shp13 { fill: #2ab6fb } 
		.shp14 { fill: #404040 } 
		.shp15 { fill: #505050 } 
		.shp16 { fill: #fece57 } 
		.shp17 { fill: #d13f4a } 
	</style>
	<g id="3">
		<path id="&lt;Path&gt;" class="shp0" d="M297.21 118.91C296.99 118.71 296.73 118.59 296.44 118.6C295.93 118.61 295.51 119 295.16 119.37C292.21 122.4 288.02 124.34 284 125.5C283.18 125.73 282.18 126.15 282.16 127C282.14 127.58 282.62 128.03 283.08 128.38C284.93 129.73 289.77 132.12 291.65 129.95C293.09 128.3 294.52 126.65 295.96 125.01C297.45 123.29 298.3 122.08 297.68 119.69C297.6 119.39 297.43 119.11 297.21 118.91Z" />
		<path id="&lt;Path&gt;" class="shp1" d="M77.58 297.02L80.98 282.75L99.54 274.15L106.22 269.17L116.75 270.3C112.83 274.68 110.79 277.09 110.64 277.55C110.41 278.22 94.36 287.06 94.12 287.28C93.96 287.43 88.45 290.68 77.58 297.02Z" />
		<path id="&lt;Path&gt;" class="shp2" d="M261.74 204.3C251.98 203.99 233.6 203.9 215.02 206.45C204.38 208.49 193.96 211.28 183.77 214.83L199.73 243.7L252.13 227.39C243.92 232.83 239.08 241.77 237.61 254.22C236.13 266.68 234.94 278.9 234.04 290.9L252.13 294.3L268.92 249.13L277.53 224.4C278.58 221.37 278.13 218.02 276.31 215.38L272.88 210.39C270.34 206.71 266.21 204.45 261.74 204.3Z" />
		<path id="&lt;Path&gt;" class="shp3" d="M159.16 216.51C159.15 216.97 159.15 226.49 159.16 245.05L184.99 292.36L175.92 286.25C174.83 285.52 173.59 285.04 172.29 284.86L133.51 279.36L132.15 297.02C166.54 312.41 183.75 320.1 183.77 320.11C190.21 323 200.46 325.81 207.61 323.96C214.19 322.25 220.19 315.14 218.99 308.11C215.67 288.69 207.83 241.45 209.13 236.34C209.68 230.46 208.91 221.08 206.82 208.21L159.16 216.51Z" />
		<path id="&lt;Path&gt;" class="shp4" d="M279.21 323.74L279.21 330.98L256.9 330.98L244.22 325.9L240.15 321.47L237.61 322.6L221.81 317.85L222.91 315.3L226.12 307.89L231.48 300.41L231.48 289.1C234.16 291.21 242.11 291.81 255.32 290.9L248.98 310.03L260.98 319.88L279.21 323.74Z" />
		<path id="&lt;Path&gt;" class="shp4" d="M137.58 278.45L133.82 299.98L109.73 290.9L92.3 292.26L83.02 299.73L77.58 297.02L82.56 282.98L101.58 275.51L109.05 270.3L118.11 270.3L125.13 275.06L137.58 278.45Z" />
		<path id="&lt;Path&gt;" class="shp5" d="M211.62 182.45C211.42 183.87 217.71 189.67 218.41 190.15C222.4 192.85 227.52 187.78 229.97 185.15C233.61 181.24 238.4 178.24 242.3 174.51C250.44 166.74 257.62 158.04 265.94 150.45C270.19 146.58 274.85 143.16 279.83 140.29C277.6 139.58 275.06 139.19 272.7 138.89C271.63 138.76 270.59 138.59 269.53 138.36C267.3 137.89 265.08 137.4 262.85 136.91C259.28 136.14 255.71 135.36 252.13 134.59C228.18 145.4 214.68 161.36 211.62 182.45Z" />
		<path id="&lt;Path&gt;" class="shp6" d="M225.21 124.77C229.73 134.85 232.68 144.34 234.04 153.24C226.34 160.94 219.89 164.32 214.69 163.38L211.52 141.69L225.21 124.77Z" />
		<g id="&lt;Group&gt;">
			<path id="&lt;Path&gt;" class="shp7" d="M262.63 120.6L266.89 121.23L264 140.66L259.75 140.03L262.63 120.6Z" />
			<path id="&lt;Path&gt;" class="shp8" d="M299.07 126.01L283.8 123.74L278.25 122.92L271.83 121.96L266.89 121.23L266.42 124.37L298.65 128.83L299.07 126.01Z" />
			<path id="&lt;Path&gt;" class="shp7" d="M298.65 128.83L266.42 124.37L265.63 129.68L297.88 134L298.65 128.83Z" />
			<path id="&lt;Path&gt;" class="shp8" d="M297.88 134L265.63 129.68L264.78 135.41L296.99 140.03L297.88 134Z" />
			<path id="&lt;Path&gt;" class="shp7" d="M264.78 135.41L264 140.66L268.94 141.39L275.36 142.35L280.91 143.17L296.18 145.44L296.99 140.03L264.78 135.41Z" />
			<path id="&lt;Path&gt;" class="shp9" d="M247.13 111.43L243.35 136.88C243.17 138.06 242.84 139 242.6 138.96L239.97 138.57C239.64 138.52 239.54 137.37 239.75 135.99L243.11 113.37C243.31 112 243.75 110.92 244.07 110.97L247.13 111.43Z" />
			<path id="&lt;Path&gt;" class="shp8" d="M252.84 109.41L252.82 109.8L246.58 108.88L241.83 140.85C241.61 142.35 242.64 143.73 244.13 143.96L260.75 146.43C262.82 146.73 264.7 145.58 264.96 143.85C267.75 124.11 269.05 114.05 268.85 113.7C270.55 113.94 271.95 113.94 271.98 113.68L272.31 108.98L256.39 106.52C254.58 106.23 252.93 107.58 252.84 109.41Z" />
			<path id="&lt;Path&gt;" class="shp7" d="M248.33 113.88L247 122.82L243.17 122.25C242.76 122.19 242.48 121.78 242.55 121.33L243.64 114C243.7 113.56 244.09 113.25 244.5 113.31L248.33 113.88Z" />
			<path id="&lt;Path&gt;" class="shp10" d="M254.47 119.46C252.46 119.17 250.58 120.55 250.28 122.57L248.5 134.55C248.2 136.56 249.59 138.43 251.61 138.73C253.62 139.03 255.49 137.64 255.79 135.63L257.57 123.65C257.87 121.64 256.48 119.76 254.47 119.46Z" />
			<path id="&lt;Path&gt;" class="shp8" d="M299.33 124.28L295.92 147.18L287.25 145.89L290.65 122.99L299.33 124.28Z" />
			<path id="&lt;Path&gt;" class="shp9" d="M299.81 121.04L295.44 150.41L302.73 151.5L307.09 122.12L299.81 121.04Z" />
			<path id="&lt;Path&gt;" class="shp10" d="M306.9 121.95C307 121.24 307.59 120.66 308.44 120.43L319.73 117.31C320.72 117.03 321.8 117.72 321.68 118.53L321.22 121.65L306.44 125.04L306.9 121.95Z" />
			<path id="&lt;Path&gt;" class="shp7" d="M302.49 151.6L304.41 138.73L318.29 141.39C318.29 141.39 318.29 141.4 318.29 141.4C318.16 142.24 317.66 142.99 316.84 143.51C314.94 144.7 313.71 145.77 313.02 146.46C312.52 146.96 312.44 147.64 312.78 148.26C313.29 149.19 314.19 150.66 315.52 152.14C316.19 152.89 316.44 153.8 316.31 154.67L315.64 159.17C315.52 159.98 314.28 160.33 313.42 159.78L303.53 153.51C302.78 153.04 302.39 152.31 302.49 151.6Z" />
			<path id="&lt;Path&gt;" class="shp9" d="M305.1 134.09L318.52 133.54C319.01 134.23 319.24 135 319.12 135.76C318.77 138.15 318.49 140.03 318.29 141.39L304.41 138.73L305.1 134.09Z" />
			<path id="&lt;Path&gt;" class="shp7" d="M306.44 125.04L321.22 121.65L320.99 123.17C320.9 123.8 320.59 124.39 320.09 124.86L316.69 128.34C316.18 128.85 316.1 129.57 316.48 130.21L318.33 133.28C318.4 133.37 318.46 133.46 318.52 133.54L305.1 134.09L306.44 125.04Z" />
		</g>
		<path id="&lt;Path&gt;" class="shp11" d="M196.83 110.28C195.7 111 207.84 124.52 208.67 125.63C212.93 131.41 217.83 136.45 222.84 141.69C222.77 135.21 224.93 128.73 228.86 123.59C222.97 117.63 217.11 111.62 211.17 105.7C208.7 103.24 206.94 101.64 205.28 105.58C203.94 108.79 200.68 107.8 196.83 110.28Z" />
		<path id="&lt;Path&gt;" class="shp0" d="M251.91 98.39C251.88 98.81 251.83 99.23 251.77 99.66C251.09 104.42 248.58 107.93 245.58 111.49C242.98 114.58 243.96 118.19 242.43 121.8C241.65 123.64 240.09 123.12 238.53 122.87C237.89 122.77 237.25 122.75 236.81 123.31C236.5 123.7 236.4 124.01 236.01 124.34C235.49 124.77 235.21 125.2 234.99 125.86C234.79 126.48 234.6 127.16 234.1 127.58C233.23 128.34 231.71 128.07 231.01 128.98C230 130.28 231 132.64 228.6 132.98C227.81 133.09 227.02 132.78 226.28 132.48C218.61 129.4 211.33 124.72 207.79 116.87C205.61 112.06 205.02 106.61 205.96 101.42C206.77 96.95 206.72 92.75 209.64 88.93C211.6 86.37 214.11 84.28 216.93 82.71C222.27 79.75 228.63 78.91 234.58 80.24C240.02 81.46 244.24 80.02 247.6 85.15C250.31 89.31 252.25 93.42 251.91 98.39Z" />
		<path id="&lt;Path&gt;" class="shp12" d="M189.88 107.07L204.32 107.85L211.15 123.19C212.29 125.61 213.86 127.79 215.79 129.65C218.43 132.18 220.91 134.5 223.24 136.62C222.29 149.51 221.81 156.19 221.81 156.64C221.81 165.35 218.59 175.22 216.64 183.63C215.24 189.67 214.34 193.1 214.94 199.26C215.49 205 214.2 210.92 211.09 215.79C206.04 223.68 196.95 228.28 187.74 229.97C180.77 231.24 174.09 230.47 167.1 230.57C163.83 230.62 157.13 233.48 157.73 227.59C158.6 218.97 159.56 210.9 159.68 202.21C159.8 193.06 159.94 183.89 160.45 174.75L162.27 142.43C162.56 137.27 163.98 132.23 166.43 127.68L167.81 125.12C171.41 118.42 177.07 113.07 183.96 109.85L189.88 107.07Z" />
		<path id="&lt;Path&gt;" class="shp13" d="M169.64 159.53L197.17 157.55C197.68 155.48 199.53 141.3 199.75 139.93C201.57 128.29 206.46 109.23 189.68 107.11C179.79 105.85 168.32 115.3 168.63 125.67L169.64 159.53Z" />
		<path id="&lt;Path&gt;" class="shp0" d="M169.64 159.53C171.82 178.49 174.94 190.02 179.02 194.11C180.32 195.42 180.96 197.26 182.42 198.53C187.68 203.08 195.88 193.83 199.68 190.87C209.82 182.97 219.64 174.66 228.87 165.7C231.38 163.25 233.89 160.78 236.63 158.58C239.02 156.66 240.76 156.4 243.7 155.91C247.69 155.25 251.84 154.85 255.77 153.87C258.33 153.23 260.59 152.97 262.71 151.14C264.68 149.44 266.06 146.82 267.04 144.44C267.99 142.12 269.28 139.97 268.92 137.47C268.84 136.86 267.47 135.26 266.89 135.08C266.2 134.87 265.59 137.11 265.21 137.72C263.93 139.8 262.52 142.25 260.76 143.97C259.48 145.21 257.25 145.21 255.54 145.21C252.68 145.23 249.98 145.96 247.21 144.75C244.06 143.37 241.71 140.96 241.69 137.38C241.69 135.65 242.61 133.87 242.2 132.2C241.97 131.26 241.41 129.85 240.65 128.66C239.95 127.57 238.26 128.1 238.27 129.41C238.28 132.38 237.06 135.87 236.53 137.96C236.07 139.73 235.97 141.1 235.09 142.67C233.43 145.59 231.84 148.65 228.69 150.18C224.4 152.26 220.08 154.23 215.76 156.25C208.54 159.61 202.4 163.72 197.02 169.66C195.79 171.01 195.71 162.64 196.76 157.09L169.64 159.53Z" />
		<g id="&lt;Group&gt;">
			<path id="&lt;Path&gt;" class="shp1" d="M222.91 315.3L240.15 321.47L237.61 322.6L221.81 317.85L222.91 315.3Z" />
			<path id="&lt;Path&gt;" class="shp1" d="M279.21 329.17L279.21 330.98L256.9 330.98L244.22 325.9L240.15 321.47L258.04 329.17L279.21 329.17Z" />
		</g>
		<g id="&lt;Group&gt;">
			<path id="&lt;Path&gt;" class="shp14" d="M261.76 95.08C257.34 98.05 251.29 98.38 246.57 95.92C247.73 97 248.9 98.08 250.07 99.16C246.51 99.74 243.4 99.44 240.74 98.25C236.38 96.09 233.08 98.94 229.14 100.49C227.3 101.21 225.84 102.74 224.11 103.52C223.64 103.74 218.64 103.96 219.29 103.1C221.91 99.63 220.54 93.55 215.77 93.63C211.44 93.7 209.55 97.24 209.92 101.32C210.25 105.02 211.48 108.77 208.14 111.54C206.99 112.5 201.43 113.46 201.09 114.52C201.78 112.37 202.46 110.21 203.15 108.06C203.92 105.65 202.53 105.58 200.86 105.74C200.11 105.81 195.57 106.08 195.26 106.33C200.79 101.81 199.31 94.13 200.98 87.97C203.32 79.37 210.43 72.16 218.84 69.68C229.18 66.63 239.55 71.54 247.96 77.28C254.67 81.86 261.66 84.81 268.92 86.11C267.57 87.65 266.81 88.47 266.64 88.57C265.63 89.21 264.4 89.68 262.97 89.99C264.52 91.23 265.52 91.74 265.96 91.52C262.71 93.13 258.95 93.71 255.36 93.17C257.39 93.47 259.68 94.6 261.76 95.08Z" />
			<path id="&lt;Path&gt;" class="shp15" d="M245.24 78.81C236.42 72.7 227.69 71.87 222.83 72C223.53 71.98 224.45 72.4 225.11 72.58C227.06 73.13 228.99 73.8 230.86 74.58C233.37 75.62 235.8 76.88 238.06 78.39C240.57 80.05 242.82 82.05 245.5 83.44C248.31 84.9 251.29 86.04 254.36 86.8C258.31 87.77 262.79 88.71 266.51 86.62C258.65 87.04 251.55 83.17 245.24 78.81Z" />
			<path id="&lt;Path&gt;" class="shp15" d="M220.45 73.71C220.71 73.95 222.17 73.86 222.53 73.92C224.3 74.2 226.04 74.72 227.69 75.42C230.03 76.41 232.19 77.8 234.05 79.52C236.43 81.73 238.29 84.52 240.72 86.65C242.98 88.62 245.39 90.7 248.04 92.13C249.2 92.75 250.43 93.23 251.7 93.58C252.42 93.78 253.15 93.93 253.89 94.07C254.45 94.17 255.75 94.62 256.28 94.43C245.98 98.17 237.85 88.32 231.84 81.49C230.04 79.44 227.72 77.88 225.37 76.52C223.8 75.61 221.82 74.94 220.45 73.71Z" />
			<path id="&lt;Path&gt;" class="shp15" d="M217.12 74.42C214.21 73.99 211.26 75.51 209.38 77.77C207.5 80.03 206.55 82.92 205.99 85.81C205.44 88.69 205.25 91.64 204.67 94.52C204.08 97.4 203.07 100.28 201.12 102.48C203.5 101.68 205.23 99.53 206.14 97.19C207.05 94.85 207.25 92.3 207.43 89.8C207.62 87.29 207.8 84.75 208.67 82.4C210.07 78.63 213.29 75.6 217.12 74.42Z" />
		</g>
		<path id="&lt;Path&gt;" class="shp14" d="M237.61 106.32L246.32 109.32L246.98 109.55L244.67 110.94L237.61 106.32Z" />
		<g id="&lt;Group&gt;">
			<path id="&lt;Path&gt;" class="shp0" d="M281.92 135.88L281.26 135.75C280.44 135.59 279.56 135.92 279.29 136.51L275.67 144.41C275.25 145.32 275.79 146.23 276.88 146.41L277.75 146.55C278.83 146.73 279.97 146.1 280.29 145.19L283.03 137.22C283.23 136.63 282.73 136.04 281.92 135.88Z" />
			<path id="&lt;Path&gt;" class="shp0" d="M274.76 136.43C272.57 136.44 272.45 137.7 272.07 139.16C271.68 140.65 271.58 142.19 271.76 143.7C271.88 144.63 271.61 146.44 273.48 146.39L274.27 146.36C275.25 146.33 276.05 145.59 276.05 144.75L276.11 137.4C276.11 136.85 275.51 136.43 274.76 136.43Z" />
			<path id="&lt;Path&gt;" class="shp0" d="M286.98 134.92L286.37 134.73C285.61 134.51 284.73 134.84 284.39 135.49L279.81 144.51C279.28 145.57 279.66 146.68 280.69 146.95L281.52 147.17C282.54 147.43 283.73 146.75 284.16 145.68L287.86 136.52C288.13 135.85 287.73 135.14 286.98 134.92Z" />
			<path id="&lt;Path&gt;" class="shp0" d="M291.38 137.63L290.81 137.41C288.29 136.41 285.49 143.98 284.75 145.29C284.27 146.12 284.64 147.1 285.58 147.45L286.33 147.72C287.25 148.06 288.33 147.61 288.73 146.75L292.21 139.17C292.47 138.6 292.1 137.92 291.38 137.63Z" />
		</g>
		<g id="&lt;Group&gt;">
			<path id="&lt;Path&gt;" class="shp7" d="M259.79 104.55L259.27 108.01L266.44 109.1L266.97 105.64L259.79 104.55Z" />
			<path id="&lt;Path&gt;" class="shp7" d="M270.48 95.35L269.9 99.22L269.34 102.89L269.02 105.02C268.85 106.08 267.86 106.8 266.8 106.65L260.09 105.63C259.03 105.47 258.3 104.48 258.46 103.42L259.93 93.75L270.48 95.35Z" />
			<path id="&lt;Path&gt;" class="shp14" d="M282.75 81.99L266.71 77.67C265.57 77.36 264.39 77.99 264 79.11L263.01 82L281.04 87.41L282.75 81.99Z" />
			<path id="&lt;Path&gt;" class="shp8" d="M263.01 82L260.69 88.79L278.73 94.67L281.04 87.41L263.01 82Z" />
			<path id="&lt;Path&gt;" class="shp16" d="M284.91 82.57L282.75 81.99L278.73 94.67L280.97 95.4L284.91 82.57Z" />
			<path id="&lt;Path&gt;" class="shp10" d="M271.62 92.98C271.08 96.54 267.75 98.99 264.19 98.44C260.63 97.91 258.18 94.58 258.73 91.02C259.27 87.46 262.59 85.01 266.15 85.55C269.71 86.09 272.16 89.42 271.62 92.98Z" />
			<path id="&lt;Path&gt;" class="shp9" d="M269.51 92.66C269.14 95.05 266.91 96.7 264.51 96.33C262.12 95.97 260.47 93.73 260.84 91.34C261.2 88.94 263.44 87.3 265.83 87.66C268.23 88.03 269.87 90.26 269.51 92.66Z" />
			<path id="&lt;Path&gt;" class="shp17" d="M269.9 99.22L269.34 102.89L267.4 102.48L267.83 98.94L269.9 99.22Z" />
		</g>
	</g>
</svg>